<?xml version="1.0" encoding="UTF-8" standalone="no"?>
<!-- Created with Inkscape (http://www.inkscape.org/) -->

<svg
   xmlns:dc="http://purl.org/dc/elements/1.1/"
   xmlns:cc="http://creativecommons.org/ns#"
   xmlns:rdf="http://www.w3.org/1999/02/22-rdf-syntax-ns#"
   xmlns:svg="http://www.w3.org/2000/svg"
   xmlns="http://www.w3.org/2000/svg"
   xmlns:sodipodi="http://sodipodi.sourceforge.net/DTD/sodipodi-0.dtd"
   xmlns:inkscape="http://www.inkscape.org/namespaces/inkscape"
   width="538.58264"
   height="106.29921"
   id="svg2"
   version="1.1"
   inkscape:version="0.48.4 r9939"
   sodipodi:docname="banner.svg"
   inkscape:export-filename="banner.png"
   inkscape:export-xdpi="84.666672"
   inkscape:export-ydpi="84.666672">
  <defs
     id="defs4" />
  <sodipodi:namedview
     id="base"
     pagecolor="#ffffff"
     bordercolor="#666666"
     borderopacity="1.0"
     inkscape:pageopacity="0"
     inkscape:pageshadow="2"
     inkscape:zoom="0.98994949"
     inkscape:cx="267.5328"
     inkscape:cy="20.261938"
     inkscape:document-units="px"
     inkscape:current-layer="layer1"
     showgrid="false"
     units="cm"
     inkscape:window-width="1366"
     inkscape:window-height="719"
     inkscape:window-x="0"
     inkscape:window-y="25"
     inkscape:window-maximized="1" />
  <metadata
     id="metadata7">
    <rdf:RDF>
      <cc:Work
         rdf:about="">
        <dc:format>image/svg+xml</dc:format>
        <dc:type
           rdf:resource="http://purl.org/dc/dcmitype/StillImage" />
        <dc:title></dc:title>
      </cc:Work>
    </rdf:RDF>
  </metadata>
  <g
     inkscape:label="Layer 1"
     inkscape:groupmode="layer"
     id="layer1"
     transform="translate(0,-946.06164)">
    <g
       id="g3094"
       transform="matrix(0.90061553,0,0,0.90061553,-84.60945,620.62391)">
      <g
         transform="matrix(1.7734131,0,0,1.7155189,-46.076628,-372.1292)"
         id="g3076">
        <path
           style="fill:#d40000"
           d="m 90.250359,464.11034 c -4.882519,0 -9.102257,4.27648 -9.102257,8.82463 0,0.88246 0.697303,3.47028 2.696076,5.31422 2.952951,2.7242 3.920072,3.12675 5.1596,2.14761 1.037682,-0.8197 1.743156,-0.86972 2.206303,-0.15645 1.015156,1.56341 5.862685,0.93323 7.758353,-0.55914 0.987501,-0.77741 2.933396,-3.53932 3.040206,-5.79173 0.17186,-3.62386 -0.13671,-5.43642 -3.797644,-7.6948 -3.183431,-2.07328 -5.89073,-2.19297 -7.960637,-2.08434 z"
           id="path3068"
           inkscape:connector-curvature="0"
           sodipodi:nodetypes="csssssscc" />
        <path
           inkscape:connector-curvature="0"
           style="fill:#5aa02c"
           d="m 95.109885,462.69907 c 0.47005,0.29051 1.89849,-0.58293 3.17431,-1.94098 l 2.319685,-2.46918 -3.019335,0 c -2.98179,0 -6.013627,3.62717 -6.013627,5.90203"
           id="path3059" />
        <path
           sodipodi:nodetypes="ssss"
           style="fill:#ffffff"
           d="m 83.42422,473.87676 c -0.636729,-1.17961 -0.584363,-2.53169 0.168656,-4.03977 1.159619,-2.32238 2.157527,-1.26698 2.157527,1.80108 0,3.49169 -0.934033,4.8178 -2.326183,2.23869 z"
           id="path3057"
           inkscape:connector-curvature="0" />
      </g>
      <path
         inkscape:connector-curvature="0"
         id="path3008"
         d="m 121.72606,401.68104 c -0.25693,-2.00721 0.30135,-4.04939 -0.10371,-6.043 -0.55707,-1.41232 -1.19282,0.59659 -1.47242,1.18493 -1.45539,3.45038 -1.58996,7.76552 0.71879,10.88475 0.72541,1.25451 0.86368,-0.98571 0.87243,-1.57397 0.0464,-1.48416 -0.15391,-2.97101 -0.0151,-4.45271 z m -7.5,9.61803 c 1.04156,-3.83678 2.64701,-7.76068 1.91665,-11.80746 -0.0261,-1.87753 0.38558,-3.84674 -0.29437,-5.65148 -0.30172,-0.8173 -1.36729,-0.81609 -1.27088,0.1777 -0.78144,3.24718 0.0308,6.594 -0.35015,9.876 0.31476,1.74091 -0.75611,3.31927 -1.35802,4.87685 -0.39037,0.99316 -1.00636,2.33102 -0.12612,3.24385 0.42422,0.41045 1.31567,0.83134 1.40731,-0.0181 0.0252,-0.23244 0.0503,-0.46497 0.0756,-0.69737 z m -6.2,6.18197 c 1.65173,-5.32426 1.01454,-10.95557 1.15575,-16.4375 -0.0934,-1.64577 -0.31786,-3.37731 -1.1907,-4.80842 -0.50514,-0.84228 -1.43133,-0.2425 -1.12218,0.61567 -0.30319,7.2734 -0.0705,14.55341 -0.0929,21.82982 0.43837,-0.37669 0.83715,-0.79587 1.24999,-1.19957 z"
         style="fill:#b3b3b3" />
      <g
         style="fill:#1a1a1a"
         id="g3071">
        <path
           style="fill:#1a1a1a"
           d="m 163.08283,474.22591 c 0.36667,-0.36666 0.66667,-20.39166 0.66667,-44.5 l 0,-43.83333 21.53621,0 21.53621,0 -0.28621,-9.75 -0.28621,-9.75 -53,0 -53,0 -0.28598,9.7304 -0.28597,9.73039 21.78597,0.26961 21.78598,0.2696 0.2604,44.25 0.2604,44.25 9.32293,0 c 5.12762,0 9.62294,-0.3 9.9896,-0.66667 z"
           id="path3061"
           inkscape:connector-curvature="0" />
        <text
           xml:space="preserve"
           style="font-size:11px;font-style:normal;font-variant:normal;font-weight:normal;font-stretch:normal;line-height:125%;letter-spacing:0px;word-spacing:0px;fill:#1a1a1a;fill-opacity:1;stroke:none;font-family:Arial;-inkscape-font-specification:Arial"
           x="179.76505"
           y="473.93362"
           id="text2996"
           sodipodi:linespacing="125%"><tspan
             sodipodi:role="line"
             id="tspan2998"
             x="179.76505"
             y="473.93362"
             style="font-size:120px;font-style:normal;font-variant:normal;font-weight:normal;font-stretch:normal;fill:#1a1a1a;font-family:Ubuntu;-inkscape-font-specification:Ubuntu">esseroids</tspan></text>
      </g>
    </g>
    <flowRoot
       xml:space="preserve"
       id="flowRoot3000"
       style="font-size:11px;font-style:normal;font-variant:normal;font-weight:normal;font-stretch:normal;line-height:125%;letter-spacing:0px;word-spacing:0px;fill:#000000;fill-opacity:1;stroke:none;font-family:Arial;-inkscape-font-specification:Arial"><flowRegion
         id="flowRegion3002"><rect
           id="rect3004"
           width="0"
           height="11.428572"
           x="660"
           y="592.36218" /></flowRegion><flowPara
         id="flowPara3006"></flowPara></flowRoot>  </g>
</svg>
