<?xml version="1.0" encoding="UTF-8" standalone="no"?>
<!-- Created with Inkscape (http://www.inkscape.org/) -->

<svg
   xmlns:dc="http://purl.org/dc/elements/1.1/"
   xmlns:cc="http://creativecommons.org/ns#"
   xmlns:rdf="http://www.w3.org/1999/02/22-rdf-syntax-ns#"
   xmlns:svg="http://www.w3.org/2000/svg"
   xmlns="http://www.w3.org/2000/svg"
   xmlns:sodipodi="http://sodipodi.sourceforge.net/DTD/sodipodi-0.dtd"
   xmlns:inkscape="http://www.inkscape.org/namespaces/inkscape"
   width="177.16534"
   height="177.16534"
   id="svg2"
   version="1.1"
   inkscape:version="0.48.4 r9939"
   sodipodi:docname="logo.svg"
   inkscape:export-filename="logo.png"
   inkscape:export-xdpi="60.959999"
   inkscape:export-ydpi="60.959999">
  <defs
     id="defs4" />
  <sodipodi:namedview
     id="base"
     pagecolor="#ffffff"
     bordercolor="#666666"
     borderopacity="1.0"
     inkscape:pageopacity="0"
     inkscape:pageshadow="2"
     inkscape:zoom="0.98994949"
     inkscape:cx="144.29419"
     inkscape:cy="20.261938"
     inkscape:document-units="px"
     inkscape:current-layer="layer1"
     showgrid="false"
     units="cm"
     inkscape:window-width="1366"
     inkscape:window-height="719"
     inkscape:window-x="0"
     inkscape:window-y="25"
     inkscape:window-maximized="1" />
  <metadata
     id="metadata7">
    <rdf:RDF>
      <cc:Work
         rdf:about="">
        <dc:format>image/svg+xml</dc:format>
        <dc:type
           rdf:resource="http://purl.org/dc/dcmitype/StillImage" />
        <dc:title></dc:title>
      </cc:Work>
    </rdf:RDF>
  </metadata>
  <g
     inkscape:label="Layer 1"
     inkscape:groupmode="layer"
     id="layer1"
     transform="translate(0,-875.1955)">
    <g
       id="g3008"
       transform="translate(-0.01830985,0.17745712)">
      <g
         transform="matrix(2.7694281,0,0,2.6790184,-221.23384,-274.42125)"
         id="g3076">
        <path
           style="fill:#d40000"
           d="m 90.250359,464.11034 c -4.882519,0 -9.102257,4.27648 -9.102257,8.82463 0,0.88246 0.697303,3.47028 2.696076,5.31422 2.952951,2.7242 3.920072,3.12675 5.1596,2.14761 1.037682,-0.8197 1.743156,-0.86972 2.206303,-0.15645 1.015156,1.56341 5.862685,0.93323 7.758353,-0.55914 0.987501,-0.77741 2.933396,-3.53932 3.040206,-5.79173 0.17186,-3.62386 -0.13671,-5.43642 -3.797644,-7.6948 -3.183431,-2.07328 -5.89073,-2.19297 -7.960637,-2.08434 z"
           id="path3068"
           inkscape:connector-curvature="0"
           sodipodi:nodetypes="csssssscc" />
        <path
           inkscape:connector-curvature="0"
           style="fill:#5aa02c"
           d="m 95.109885,462.69907 c 0.47005,0.29051 1.89849,-0.58293 3.17431,-1.94098 l 2.319685,-2.46918 -3.019335,0 c -2.98179,0 -6.013627,3.62717 -6.013627,5.90203"
           id="path3059" />
        <path
           sodipodi:nodetypes="ssss"
           style="fill:#ffffff"
           d="m 83.42422,473.87676 c -0.636729,-1.17961 -0.584363,-2.53169 0.168656,-4.03977 1.159619,-2.32238 2.157527,-1.26698 2.157527,1.80108 0,3.49169 -0.934033,4.8178 -2.326183,2.23869 z"
           id="path3057"
           inkscape:connector-curvature="0" />
      </g>
      <path
         inkscape:connector-curvature="0"
         id="path3008"
         d="m 40.813109,933.9897 c -0.401232,-3.13453 0.4706,-6.32368 -0.161953,-9.43698 -0.869941,-2.20552 -1.862752,0.93166 -2.299385,1.85044 -2.272792,5.38825 -2.482942,12.12693 1.122488,16.99802 1.132828,1.95911 1.348756,-1.53931 1.362419,-2.45797 0.07246,-2.31772 -0.24035,-4.63964 -0.02358,-6.95351 z M 29.10083,949.00958 c 1.626538,-5.99166 4.133669,-12.11937 2.99311,-18.43897 -0.04077,-2.93202 0.602138,-6.00722 -0.459698,-8.82556 -0.471178,-1.27634 -2.13521,-1.27445 -1.984654,0.2775 -1.220325,5.07092 0.0481,10.29744 -0.546808,15.42273 0.491542,2.71867 -1.180769,5.18349 -2.120735,7.61586 -0.609615,1.55097 -1.571568,3.64022 -0.196952,5.06572 0.662477,0.64098 2.054599,1.29825 2.197707,-0.0283 0.03936,-0.36299 0.07855,-0.72611 0.118066,-1.08903 z m -9.682153,9.65399 c 2.579404,-8.31456 1.584344,-17.10863 1.804863,-25.66941 -0.145861,-2.57011 -0.496382,-5.27414 -1.859441,-7.50902 -0.788846,-1.31533 -2.235219,-0.37869 -1.752439,0.96145 -0.473473,11.35842 -0.11009,22.72716 -0.145081,34.09027 0.684575,-0.58824 1.307324,-1.24285 1.95203,-1.87329 z"
         style="fill:#b3b3b3" />
      <path
         inkscape:connector-curvature="0"
         id="path3061"
         d="m 105.39738,1047.2784 c 0.57261,-0.5725 1.0411,-31.8443 1.0411,-69.49285 l 0,-68.4517 33.63175,0 33.63174,0 -0.44694,-15.22596 -0.44697,-15.22596 -82.76677,0 -82.7667788,0 -0.4465972,15.19536 -0.4465813,15.19534 34.0217833,0.42102 34.021799,0.42102 0.406652,69.10244 0.40665,69.10239 14.559034,0 c 8.007484,0 15.027539,-0.4683 15.600129,-1.0411 z"
         style="fill:#1a1a1a" />
    </g>
    <flowRoot
       xml:space="preserve"
       id="flowRoot3000"
       style="font-size:11px;font-style:normal;font-variant:normal;font-weight:normal;font-stretch:normal;line-height:125%;letter-spacing:0px;word-spacing:0px;fill:#000000;fill-opacity:1;stroke:none;font-family:Arial;-inkscape-font-specification:Arial"><flowRegion
         id="flowRegion3002"><rect
           id="rect3004"
           width="0"
           height="11.428572"
           x="660"
           y="592.36218" /></flowRegion><flowPara
         id="flowPara3006" /></flowRoot>  </g>
</svg>
