<?xml version="1.0" encoding="UTF-8" standalone="no"?>
<!-- Created with Inkscape (http://www.inkscape.org/) -->

<svg
   xmlns:dc="http://purl.org/dc/elements/1.1/"
   xmlns:cc="http://creativecommons.org/ns#"
   xmlns:rdf="http://www.w3.org/1999/02/22-rdf-syntax-ns#"
   xmlns:svg="http://www.w3.org/2000/svg"
   xmlns="http://www.w3.org/2000/svg"
   xmlns:sodipodi="http://sodipodi.sourceforge.net/DTD/sodipodi-0.dtd"
   xmlns:inkscape="http://www.inkscape.org/namespaces/inkscape"
   id="svg2"
   version="1.1"
   inkscape:version="0.48.2 r9819"
   width="314.86349"
   height="287.44135"
   xml:space="preserve"
   sodipodi:docname="prism-vectors.svg"
   inkscape:export-filename="prism-vectors.png"
   inkscape:export-xdpi="150"
   inkscape:export-ydpi="150"><metadata
     id="metadata8"><rdf:RDF><cc:Work
         rdf:about=""><dc:format>image/svg+xml</dc:format><dc:type
           rdf:resource="http://purl.org/dc/dcmitype/StillImage" /><dc:title /></cc:Work></rdf:RDF></metadata><defs
     id="defs6"><marker
       inkscape:stockid="Arrow1Mstart"
       orient="auto"
       refY="0.0"
       refX="0.0"
       id="Arrow1Mstart"
       style="overflow:visible"><path
         id="path3953"
         d="M 0.0,0.0 L 5.0,-5.0 L -12.5,0.0 L 5.0,5.0 L 0.0,0.0 z "
         style="fill-rule:evenodd;stroke:#000000;stroke-width:1.0pt;marker-start:none"
         transform="scale(0.4) translate(10,0)" /></marker><marker
       inkscape:stockid="Arrow2Mend"
       orient="auto"
       refY="0.0"
       refX="0.0"
       id="Arrow2Mend"
       style="overflow:visible;"><path
         id="path3974"
         style="font-size:12.0;fill-rule:evenodd;stroke-width:0.62500000;stroke-linejoin:round;"
         d="M 8.7185878,4.0337352 L -2.2072895,0.016013256 L 8.7185884,-4.0017078 C 6.9730900,-1.6296469 6.9831476,1.6157441 8.7185878,4.0337352 z "
         transform="scale(0.6) rotate(180) translate(0,0)" /></marker><marker
       inkscape:stockid="Arrow1Mend"
       orient="auto"
       refY="0.0"
       refX="0.0"
       id="Arrow1Mend"
       style="overflow:visible;"><path
         id="path3956"
         d="M 0.0,0.0 L 5.0,-5.0 L -12.5,0.0 L 5.0,5.0 L 0.0,0.0 z "
         style="fill-rule:evenodd;stroke:#000000;stroke-width:1.0pt;marker-start:none;"
         transform="scale(0.4) rotate(180) translate(10,0)" /></marker><marker
       inkscape:stockid="Arrow2Mend"
       orient="auto"
       refY="0"
       refX="0"
       id="Arrow2Mend-8"
       style="overflow:visible"><path
         inkscape:connector-curvature="0"
         id="path3974-5"
         style="font-size:12px;fill-rule:evenodd;stroke-width:0.625;stroke-linejoin:round"
         d="M 8.7185878,4.0337352 -2.2072895,0.01601326 8.7185884,-4.0017078 c -1.7454984,2.3720609 -1.7354408,5.6174519 -6e-7,8.035443 z"
         transform="scale(-0.6,-0.6)" /></marker><marker
       inkscape:stockid="Arrow2Mend"
       orient="auto"
       refY="0"
       refX="0"
       id="Arrow2Mend-5"
       style="overflow:visible"><path
         inkscape:connector-curvature="0"
         id="path3974-3"
         style="font-size:12px;fill-rule:evenodd;stroke-width:0.625;stroke-linejoin:round"
         d="M 8.7185878,4.0337352 -2.2072895,0.01601326 8.7185884,-4.0017078 c -1.7454984,2.3720609 -1.7354408,5.6174519 -6e-7,8.035443 z"
         transform="scale(-0.6,-0.6)" /></marker></defs><sodipodi:namedview
     pagecolor="#ffffff"
     bordercolor="#666666"
     borderopacity="1"
     objecttolerance="10"
     gridtolerance="10"
     guidetolerance="10"
     inkscape:pageopacity="0"
     inkscape:pageshadow="2"
     inkscape:window-width="1680"
     inkscape:window-height="1001"
     id="namedview4"
     showgrid="false"
     inkscape:zoom="1.6420741"
     inkscape:cx="98.734811"
     inkscape:cy="165.0854"
     inkscape:window-x="0"
     inkscape:window-y="25"
     inkscape:window-maximized="1"
     inkscape:current-layer="g10" /><g
     id="g10"
     inkscape:groupmode="layer"
     inkscape:label="coordinate_sys"
     transform="matrix(1.25,0,0,-1.25,0,287.44135)"><g
   transform="matrix(0,-1,1,0,0,229.95308)"
   id="g14"><path
     inkscape:connector-curvature="0"
     id="path16"
     style="fill:none;stroke:#000000;stroke-width:1.5;stroke-linecap:butt;stroke-linejoin:miter;stroke-miterlimit:10;stroke-opacity:1;stroke-dasharray:none"
     d="m 210.578,11.551 6.399,-10.801 -0.2,12.5 M 178.68,134.352 216.977,0.75" /></g><g
   transform="matrix(0,-1,1,0,0,229.95308)"
   id="g18"><path
     inkscape:connector-curvature="0"
     id="path20"
     style="fill:none;stroke:#000000;stroke-width:1.5;stroke-linecap:butt;stroke-linejoin:miter;stroke-miterlimit:10;stroke-opacity:1;stroke-dasharray:none"
     d="m 210.578,11.551 6.399,-10.801 -0.2,12.5" /></g><g
   transform="matrix(0,-1,1,0,0,229.95308)"
   id="g22"><path
     inkscape:connector-curvature="0"
     id="path24"
     style="fill:none;stroke:#000000;stroke-width:1.5;stroke-linecap:butt;stroke-linejoin:miter;stroke-miterlimit:10;stroke-opacity:1;stroke-dasharray:none"
     d="m 222.879,234.051 1.5,12.5 -7.602,-10 M 178.68,134.352 224.379,246.551" /></g><g
   transform="matrix(0,-1,1,0,0,229.95308)"
   id="g26"><path
     inkscape:connector-curvature="0"
     id="path28"
     style="fill:none;stroke:#000000;stroke-width:1.5;stroke-linecap:butt;stroke-linejoin:miter;stroke-miterlimit:10;stroke-opacity:1;stroke-dasharray:none"
     d="m 222.879,234.051 1.5,12.5 -7.602,-10" /></g><g
   transform="matrix(0,-1,1,0,0,229.95308)"
   id="g30"><path
     inkscape:connector-curvature="0"
     id="path32"
     style="fill:none;stroke:#000000;stroke-width:1.5;stroke-linecap:butt;stroke-linejoin:miter;stroke-miterlimit:10;stroke-opacity:1;stroke-dasharray:none"
     d="m 26.879,137.551 -12.102,-3.199 12.102,-3.204 m 151.801,3.204 -163.903,0" /></g><g
   transform="matrix(0,-1,1,0,0,229.95308)"
   id="g34"><path
     inkscape:connector-curvature="0"
     id="path36"
     style="fill:none;stroke:#000000;stroke-width:1.5;stroke-linecap:butt;stroke-linejoin:miter;stroke-miterlimit:10;stroke-opacity:1;stroke-dasharray:none"
     d="m 26.879,137.551 -12.102,-3.199 12.102,-3.204" /></g><path
   inkscape:connector-curvature="0"
   id="path38"
   style="fill:#000000;fill-opacity:1;fill-rule:nonzero;stroke:none"
   d="m 207,154.875 c 0,1.738 -1.41,3.148 -3.148,3.148 -1.743,0 -3.153,-1.41 -3.153,-3.148 0,-1.738 1.41,-3.148 3.153,-3.148 1.738,0 3.148,1.41 3.148,3.148" /><g
   transform="matrix(0,-1,1,0,0,229.95308)"
   id="g40"><path
     inkscape:connector-curvature="0"
     id="path42"
     style="fill:none;stroke:#000000;stroke-width:0.75;stroke-linecap:butt;stroke-linejoin:miter;stroke-miterlimit:10;stroke-opacity:1;stroke-dasharray:2, 3;stroke-dashoffset:0"
     d="m 75.078,203.852 154.5,0 -50.898,-69.5 -103.602,69.5" /></g><g
   transform="matrix(0,-1,1,0,0,229.95308)"
   id="g44"><path
     inkscape:connector-curvature="0"
     id="path46"
     style="fill:none;stroke:#000000;stroke-width:1;stroke-linecap:butt;stroke-linejoin:miter;stroke-miterlimit:10;stroke-opacity:1;stroke-dasharray:none"
     d="m 52.379,198.852 -8.102,-5.403 9.7,0.602 m 21.101,9.801 -30.801,-10.403" /></g><g
   transform="matrix(0,-1,1,0,0,229.95308)"
   id="g48"><path
     inkscape:connector-curvature="0"
     id="path50"
     style="fill:none;stroke:#000000;stroke-width:1;stroke-linecap:butt;stroke-linejoin:miter;stroke-miterlimit:10;stroke-opacity:1;stroke-dasharray:none"
     d="m 52.379,198.852 -8.102,-5.403 9.7,0.602" /></g><g
   transform="matrix(0,-1,1,0,0,229.95308)"
   id="g52"><path
     inkscape:connector-curvature="0"
     id="path54"
     style="fill:none;stroke:#000000;stroke-width:1;stroke-linecap:butt;stroke-linejoin:miter;stroke-miterlimit:10;stroke-opacity:1;stroke-dasharray:none"
     d="m 73.977,226.852 -3.899,8.699 -1,-9.5 m 6,-22.199 -5,31.699" /></g><g
   transform="matrix(0,-1,1,0,0,229.95308)"
   id="g56"><path
     inkscape:connector-curvature="0"
     id="path58"
     style="fill:none;stroke:#000000;stroke-width:1;stroke-linecap:butt;stroke-linejoin:miter;stroke-miterlimit:10;stroke-opacity:1;stroke-dasharray:none"
     d="m 73.977,226.852 -3.899,8.699 -1,-9.5" /></g><g
   transform="matrix(0,-1,1,0,0,229.95308)"
   id="g60"><path
     inkscape:connector-curvature="0"
     id="path62"
     style="fill:none;stroke:#000000;stroke-width:1;stroke-linecap:butt;stroke-linejoin:miter;stroke-miterlimit:10;stroke-opacity:1;stroke-dasharray:none"
     d="m 57.977,218.25 -8.797,3 6.097,-7 M 75.078,203.852 49.18,221.25" /></g><g
   transform="matrix(0,-1,1,0,0,229.95308)"
   id="g64"><path
     inkscape:connector-curvature="0"
     id="path66"
     style="fill:none;stroke:#000000;stroke-width:1;stroke-linecap:butt;stroke-linejoin:miter;stroke-miterlimit:10;stroke-opacity:1;stroke-dasharray:none"
     d="m 57.977,218.25 -8.797,3 6.097,-7" /></g><g
   transform="matrix(0,-1,1,0,0,229.95308)"
   id="g68"><path
     inkscape:connector-curvature="0"
     id="path70"
     style="fill:none;stroke:#000000;stroke-width:1;stroke-linecap:butt;stroke-linejoin:miter;stroke-miterlimit:10;stroke-opacity:1;stroke-dasharray:none"
     d="M 49.879,52.551 40.078,54.25 47.68,47.852 M 70.18,40.051 40.078,54.25" /></g><g
   transform="matrix(0,-1,1,0,0,229.95308)"
   id="g72"><path
     inkscape:connector-curvature="0"
     id="path74"
     style="fill:none;stroke:#000000;stroke-width:1;stroke-linecap:butt;stroke-linejoin:miter;stroke-miterlimit:10;stroke-opacity:1;stroke-dasharray:none"
     d="M 49.879,52.551 40.078,54.25 47.68,47.852" /></g><g
   transform="matrix(0,-1,1,0,0,229.95308)"
   id="g76"><path
     inkscape:connector-curvature="0"
     id="path78"
     style="fill:none;stroke:#000000;stroke-width:1;stroke-linecap:butt;stroke-linejoin:miter;stroke-miterlimit:10;stroke-opacity:1;stroke-dasharray:none"
     d="m 77.277,59.852 -0.199,8.796 -4.199,-7.699 M 70.18,40.051 77.078,68.648" /></g><g
   transform="matrix(0,-1,1,0,0,229.95308)"
   id="g80"><path
     inkscape:connector-curvature="0"
     id="path82"
     style="fill:none;stroke:#000000;stroke-width:1;stroke-linecap:butt;stroke-linejoin:miter;stroke-miterlimit:10;stroke-opacity:1;stroke-dasharray:none"
     d="m 77.277,59.852 -0.199,8.796 -4.199,-7.699" /></g><g
   transform="matrix(0,-1,1,0,0,229.95308)"
   id="g84"><path
     inkscape:connector-curvature="0"
     id="path86"
     style="fill:none;stroke:#000000;stroke-width:1;stroke-linecap:butt;stroke-linejoin:miter;stroke-miterlimit:10;stroke-opacity:1;stroke-dasharray:none"
     d="m 53.277,28.352 -4.8,-7.102 7.703,3.699 m 14,15.102 L 48.477,21.25" /></g><g
   transform="matrix(0,-1,1,0,0,229.95308)"
   id="g88"><path
     inkscape:connector-curvature="0"
     id="path90"
     style="fill:none;stroke:#000000;stroke-width:1;stroke-linecap:butt;stroke-linejoin:miter;stroke-miterlimit:10;stroke-opacity:1;stroke-dasharray:none"
     d="m 53.277,28.352 -4.8,-7.102 7.703,3.699" /></g><path
   inkscape:connector-curvature="0"
   id="path92"
   style="fill:#000000;fill-opacity:1;fill-rule:nonzero;stroke:none"
   d="m 43.199,159.773 c 0,1.743 -1.41,3.153 -3.148,3.153 -1.739,0 -3.153,-1.41 -3.153,-3.153 0,-1.738 1.414,-3.148 3.153,-3.148 1.738,0 3.148,1.41 3.148,3.148" /><g
   transform="matrix(0,-1,1,0,0,229.95308)"
   id="g94"><path
     inkscape:connector-curvature="0"
     id="path96"
     style="fill:none;stroke:#000000;stroke-width:0.75;stroke-linecap:butt;stroke-linejoin:miter;stroke-miterlimit:10;stroke-opacity:1;stroke-dasharray:2, 3;stroke-dashoffset:0"
     d="m 70.18,40.051 154.5,0 -46,94.301 -108.5,-94.301" /></g><g
   transform="matrix(0,-1,1,0,0,229.95308)"
   id="g98"><path
     inkscape:connector-curvature="0"
     id="path100"
     style="fill:none;stroke:#000000;stroke-width:0.75;stroke-linecap:butt;stroke-linejoin:miter;stroke-miterlimit:10;stroke-opacity:1;stroke-dasharray:none"
     d="M 81.777,18.75 51.68,32.852 58.578,61.449 88.68,47.25 81.777,18.75 m 27.102,23.602 6.898,28.5 L 85.68,85.051 M 81.777,18.75 108.879,42.352 M 88.68,47.25 115.777,70.852 M 58.578,61.449 85.68,85.051" /></g><g
   transform="matrix(0,-1,1,0,0,229.95308)"
   id="g102"><path
     inkscape:connector-curvature="0"
     id="path104"
     style="fill:none;stroke:#000000;stroke-width:0.75;stroke-linecap:butt;stroke-linejoin:miter;stroke-miterlimit:10;stroke-opacity:1;stroke-dasharray:4, 2;stroke-dashoffset:0"
     d="m 51.68,32.852 27.199,23.597 6.801,28.602 m -6.801,-28.602 30,-14.097" /></g><text
   id="text106"
   transform="scale(1,-1)"
   x="138.82161"
   y="-217.41808"><tspan
     id="tspan108"
     y="-217.41808"
     x="138.82161"
     style="font-size:11.19999981px;font-variant:normal;font-weight:normal;writing-mode:lr-tb;fill:#000000;fill-opacity:1;fill-rule:nonzero;stroke:none;font-family:DejaVu Sans;-inkscape-font-specification:DejaVuSans">Z</tspan></text>





<text
   id="text114"
   transform="scale(1,-1)"
   x="1.455768"
   y="-21.267763"><tspan
     id="tspan116"
     y="-21.267763"
     x="1.455768"
     style="font-size:11.19999981px;font-variant:normal;font-weight:normal;writing-mode:lr-tb;fill:#000000;fill-opacity:1;fill-rule:nonzero;stroke:none;font-family:DejaVu Sans;-inkscape-font-specification:DejaVuSans">X</tspan></text>





<text
   id="text122"
   transform="scale(1,-1)"
   x="238.7782"
   y="-14.817758"><tspan
     id="tspan124"
     y="-14.817758"
     x="238.7782"
     style="font-size:12px;font-variant:normal;font-weight:normal;writing-mode:lr-tb;fill:#000000;fill-opacity:1;fill-rule:nonzero;stroke:none;font-family:DejaVu Sans;-inkscape-font-specification:DejaVuSans">Y</tspan></text>





<text
   id="text130"
   transform="scale(1,-1)"
   x="188.91992"
   y="-190.13782"
   style="-inkscape-font-specification:LMMathItalic9 Bold Italic;font-family:LMMathItalic9;font-weight:bold;font-style:italic;font-stretch:normal;font-variant:normal;font-size:12px"><tspan
     id="tspan132"
     y="-190.13782"
     x="188.91992"
     style="font-size:12px;font-variant:normal;font-weight:bold;writing-mode:lr-tb;fill:#000000;fill-opacity:1;fill-rule:nonzero;stroke:none;font-family:LMMathItalic9;-inkscape-font-specification:LMMathItalic9 Bold Italic;font-style:italic;font-stretch:normal">x</tspan></text>





<text
   id="text138"
   transform="scale(1,-1)"
   x="224.39146"
   y="-183.70422"
   style="-inkscape-font-specification:LMMathItalic9 Bold Italic;font-family:LMMathItalic9;font-weight:bold;font-style:italic;font-stretch:normal;font-variant:normal;font-size:12px"><tspan
     id="tspan140"
     y="-183.70422"
     x="224.39146"
     style="font-size:12px;font-variant:normal;font-weight:bold;writing-mode:lr-tb;fill:#000000;fill-opacity:1;fill-rule:nonzero;stroke:none;font-family:LMMathItalic9;-inkscape-font-specification:LMMathItalic9 Bold Italic;font-style:italic;font-stretch:normal">z</tspan></text>





<text
   id="text146"
   transform="scale(1,-1)"
   x="239.64548"
   y="-157.39413"
   style="-inkscape-font-specification:LMMathItalic9 Bold Italic;font-family:LMMathItalic9;font-weight:bold;font-style:italic;font-stretch:normal;font-variant:normal;font-size:12px"><tspan
     id="tspan148"
     y="-157.39413"
     x="239.64548"
     style="font-size:12px;font-variant:normal;font-weight:bold;writing-mode:lr-tb;fill:#000000;fill-opacity:1;fill-rule:nonzero;stroke:none;font-family:LMMathItalic9;-inkscape-font-specification:LMMathItalic9 Bold Italic;font-style:italic;font-stretch:normal">y</tspan></text>






<text
   id="text158"
   transform="scale(1,-1)"
   x="57.022572"
   y="-189.50005"
   style="font-size:12px;font-style:italic;font-variant:normal;font-weight:bold;font-stretch:normal;font-family:LMMathItalic9;-inkscape-font-specification:LMMathItalic9 Bold Italic"><tspan
     id="tspan160"
     y="-189.50005"
     x="57.022572"
     style="font-size:12px;font-style:italic;font-variant:normal;font-weight:bold;font-stretch:normal;writing-mode:lr-tb;fill:#000000;fill-opacity:1;fill-rule:nonzero;stroke:none;font-family:LMMathItalic9;-inkscape-font-specification:LMMathItalic9 Bold Italic">x*</tspan></text>





<text
   id="text166"
   transform="scale(1,-1)"
   x="22.138763"
   y="-183.09895"
   style="font-size:12px;font-style:italic;font-variant:normal;font-weight:bold;font-stretch:normal;font-family:LMMathItalic9;-inkscape-font-specification:LMMathItalic9 Bold Italic"><tspan
     id="tspan168"
     y="-183.09895"
     x="22.138763"
     style="font-size:12px;font-style:italic;font-variant:normal;font-weight:bold;font-stretch:normal;writing-mode:lr-tb;fill:#000000;fill-opacity:1;fill-rule:nonzero;stroke:none;font-family:LMMathItalic9;-inkscape-font-specification:LMMathItalic9 Bold Italic">z*</tspan></text>








<text
   id="text182"
   transform="scale(1,-1)"
   x="208.6972"
   y="-144.211"><tspan
     id="tspan184"
     y="-144.211"
     x="208.6972"
     style="font-size:11.19999981px;font-variant:normal;font-weight:normal;writing-mode:lr-tb;fill:#000000;fill-opacity:1;fill-rule:nonzero;stroke:none;font-family:Bitstream Charter;-inkscape-font-specification:BitstreamVeraSans">P</tspan><tspan
     id="tspan186"
     y="-149.23842"
     x="29.131674"
     style="font-size:11.19999981px;font-variant:normal;font-weight:normal;writing-mode:lr-tb;fill:#000000;fill-opacity:1;fill-rule:nonzero;stroke:none;font-family:Bitstream Charter;-inkscape-font-specification:BitstreamVeraSans">Q</tspan></text>











<path
   style="fill:none;stroke:#000000;stroke-width:2.1;stroke-linecap:butt;stroke-linejoin:miter;stroke-opacity:1;stroke-miterlimit:4;stroke-dasharray:none;marker-end:url(#Arrow2Mend)"
   d="M 168.08011,223.19333 252.42466,97.133246"
   id="path4574"
   inkscape:connector-curvature="0"
   transform="matrix(0.8,0,0,-0.8,0,229.95308)" /><path
   style="fill:none;stroke:#000000;stroke-width:1.67999995;stroke-linecap:butt;stroke-linejoin:miter;stroke-miterlimit:4;stroke-opacity:1;stroke-dasharray:none;marker-end:url(#Arrow2Mend)"
   d="M 134.46409,51.416362 42.094302,156.39836"
   id="path4574-1"
   inkscape:connector-curvature="0"
   sodipodi:nodetypes="cc" /><path
   style="fill:none;stroke:#000000;stroke-width:1.67999995000000002;stroke-linecap:butt;stroke-linejoin:miter;stroke-miterlimit:4;stroke-opacity:1;stroke-dasharray:none;marker-end:none;marker-start:url(#Arrow1Mstart)"
   d="M 201.985,155.45369 42.094302,156.39836"
   id="path4574-1-9"
   inkscape:connector-curvature="0"
   sodipodi:nodetypes="cc" /><text
   id="text158-6"
   x="98.491798"
   y="-96.205261"
   style="font-size:12px;font-style:italic;font-variant:normal;font-weight:bold;font-stretch:normal;font-family:LMMathItalic9;-inkscape-font-specification:LMMathItalic9 Bold Italic"
   transform="scale(1,-1)"><tspan
     id="tspan160-6"
     y="-96.205261"
     x="98.491798"
     style="font-size:12px;font-style:italic;font-variant:normal;font-weight:bold;font-stretch:normal;writing-mode:lr-tb;fill:#000000;fill-opacity:1;fill-rule:nonzero;stroke:none;font-family:LMMathItalic9;-inkscape-font-specification:LMMathItalic9 Bold Italic"><tspan
   style="font-style:normal;font-weight:bold;-inkscape-font-specification:LMMathItalic9 Bold Italic"
   id="tspan5209">E</tspan>*</tspan></text>




<text
   id="text158-6-2"
   x="151.66524"
   y="-95.105774"
   style="font-size:12px;font-style:italic;font-variant:normal;font-weight:bold;font-stretch:normal;font-family:LMMathItalic9;-inkscape-font-specification:LMMathItalic9 Bold Italic"
   transform="scale(1,-1)"><tspan
     id="tspan160-6-1"
     y="-95.105774"
     x="151.66524"
     style="font-size:12px;font-style:italic;font-variant:normal;font-weight:bold;font-stretch:normal;writing-mode:lr-tb;fill:#000000;fill-opacity:1;fill-rule:nonzero;stroke:none;font-family:LMMathItalic9;-inkscape-font-specification:LMMathItalic9 Bold Italic"><tspan
       style="font-style:normal;font-weight:bold;-inkscape-font-specification:LMMathItalic9 Bold Italic"
       id="tspan5209-6">E</tspan></tspan></text>





<text
   id="text158-6-6"
   x="150.12428"
   y="-159.72806"
   style="font-size:12px;font-style:italic;font-variant:normal;font-weight:bold;font-stretch:normal;font-family:LMMathItalic9;-inkscape-font-specification:LMMathItalic9 Bold Italic"
   transform="scale(1,-1)"><tspan
     id="tspan160-6-5"
     y="-159.72806"
     x="150.12428"
     style="font-size:12px;font-style:italic;font-variant:normal;font-weight:bold;font-stretch:normal;writing-mode:lr-tb;fill:#000000;fill-opacity:1;fill-rule:nonzero;stroke:none;font-family:LMMathItalic9;-inkscape-font-specification:LMMathItalic9 Bold Italic">e</tspan></text>



<rect
   style="fill:#ffffff;fill-opacity:1;stroke:none"
   id="rect3092"
   width="11.023822"
   height="12.746294"
   x="65.0075"
   y="-149.89775"
   transform="scale(1,-1)"
   rx="0"
   ry="0" /><text
   id="text174"
   transform="scale(1,-1)"
   x="63.13187"
   y="-140.26839"
   style="font-size:12px;font-style:italic;font-variant:normal;font-weight:bold;font-stretch:normal;font-family:LMMathItalic9;-inkscape-font-specification:LMMathItalic9 Bold Italic"><tspan
     id="tspan176"
     y="-140.26839"
     x="63.13187"
     style="font-size:12px;font-style:italic;font-variant:normal;font-weight:bold;font-stretch:normal;writing-mode:lr-tb;fill:#000000;fill-opacity:1;fill-rule:nonzero;stroke:none;font-family:LMMathItalic9;-inkscape-font-specification:LMMathItalic9 Bold Italic">y*</tspan></text>


</g></svg>