<?xml version="1.0" encoding="UTF-8" standalone="no"?>
<!-- Created with Inkscape (http://www.inkscape.org/) -->

<svg
   xmlns:dc="http://purl.org/dc/elements/1.1/"
   xmlns:cc="http://creativecommons.org/ns#"
   xmlns:rdf="http://www.w3.org/1999/02/22-rdf-syntax-ns#"
   xmlns:svg="http://www.w3.org/2000/svg"
   xmlns="http://www.w3.org/2000/svg"
   xmlns:sodipodi="http://sodipodi.sourceforge.net/DTD/sodipodi-0.dtd"
   xmlns:inkscape="http://www.inkscape.org/namespaces/inkscape"
   id="svg2"
   version="1.1"
   inkscape:version="0.48.2 r9819"
   width="314.86349"
   height="287.44135"
   xml:space="preserve"
   sodipodi:docname="coordinates.svg"
   inkscape:export-filename="/home/leo/src/tesseroids/doc-dev/docs/_static/coordinates.png"
   inkscape:export-xdpi="150"
   inkscape:export-ydpi="150"><metadata
     id="metadata8"><rdf:RDF><cc:Work
         rdf:about=""><dc:format>image/svg+xml</dc:format><dc:type
           rdf:resource="http://purl.org/dc/dcmitype/StillImage" /><dc:title></dc:title></cc:Work></rdf:RDF></metadata><defs
     id="defs6" /><sodipodi:namedview
     pagecolor="#ffffff"
     bordercolor="#666666"
     borderopacity="1"
     objecttolerance="10"
     gridtolerance="10"
     guidetolerance="10"
     inkscape:pageopacity="0"
     inkscape:pageshadow="2"
     inkscape:window-width="1680"
     inkscape:window-height="1001"
     id="namedview4"
     showgrid="false"
     inkscape:zoom="1.6420741"
     inkscape:cx="265.12879"
     inkscape:cy="136.40181"
     inkscape:window-x="0"
     inkscape:window-y="25"
     inkscape:window-maximized="1"
     inkscape:current-layer="g10" /><g
     id="g10"
     inkscape:groupmode="layer"
     inkscape:label="coordinate_sys"
     transform="matrix(1.25,0,0,-1.25,0,287.44135)"><g
       transform="matrix(0,-1,1,0,0,229.95308)"
       id="g14"><path
         inkscape:connector-curvature="0"
         id="path16"
         style="fill:none;stroke:#000000;stroke-width:1.5;stroke-linecap:butt;stroke-linejoin:miter;stroke-miterlimit:10;stroke-opacity:1;stroke-dasharray:none"
         d="m 210.578,11.551 6.399,-10.801 -0.2,12.5 M 178.68,134.352 216.977,0.75" /></g><g
       transform="matrix(0,-1,1,0,0,229.95308)"
       id="g18"><path
         inkscape:connector-curvature="0"
         id="path20"
         style="fill:none;stroke:#000000;stroke-width:1.5;stroke-linecap:butt;stroke-linejoin:miter;stroke-miterlimit:10;stroke-opacity:1;stroke-dasharray:none"
         d="m 210.578,11.551 6.399,-10.801 -0.2,12.5" /></g><g
       transform="matrix(0,-1,1,0,0,229.95308)"
       id="g22"><path
         inkscape:connector-curvature="0"
         id="path24"
         style="fill:none;stroke:#000000;stroke-width:1.5;stroke-linecap:butt;stroke-linejoin:miter;stroke-miterlimit:10;stroke-opacity:1;stroke-dasharray:none"
         d="m 222.879,234.051 1.5,12.5 -7.602,-10 M 178.68,134.352 224.379,246.551" /></g><g
       transform="matrix(0,-1,1,0,0,229.95308)"
       id="g26"><path
         inkscape:connector-curvature="0"
         id="path28"
         style="fill:none;stroke:#000000;stroke-width:1.5;stroke-linecap:butt;stroke-linejoin:miter;stroke-miterlimit:10;stroke-opacity:1;stroke-dasharray:none"
         d="m 222.879,234.051 1.5,12.5 -7.602,-10" /></g><g
       transform="matrix(0,-1,1,0,0,229.95308)"
       id="g30"><path
         inkscape:connector-curvature="0"
         id="path32"
         style="fill:none;stroke:#000000;stroke-width:1.5;stroke-linecap:butt;stroke-linejoin:miter;stroke-miterlimit:10;stroke-opacity:1;stroke-dasharray:none"
         d="m 26.879,137.551 -12.102,-3.199 12.102,-3.204 m 151.801,3.204 -163.903,0" /></g><g
       transform="matrix(0,-1,1,0,0,229.95308)"
       id="g34"><path
         inkscape:connector-curvature="0"
         id="path36"
         style="fill:none;stroke:#000000;stroke-width:1.5;stroke-linecap:butt;stroke-linejoin:miter;stroke-miterlimit:10;stroke-opacity:1;stroke-dasharray:none"
         d="m 26.879,137.551 -12.102,-3.199 12.102,-3.204" /></g><path
       inkscape:connector-curvature="0"
       id="path38"
       style="fill:#000000;fill-opacity:1;fill-rule:nonzero;stroke:none"
       d="m 207,154.875 c 0,1.738 -1.41,3.148 -3.148,3.148 -1.743,0 -3.153,-1.41 -3.153,-3.148 0,-1.738 1.41,-3.148 3.153,-3.148 1.738,0 3.148,1.41 3.148,3.148" /><g
       transform="matrix(0,-1,1,0,0,229.95308)"
       id="g40"><path
         inkscape:connector-curvature="0"
         id="path42"
         style="fill:none;stroke:#000000;stroke-width:0.75;stroke-linecap:butt;stroke-linejoin:miter;stroke-miterlimit:10;stroke-opacity:1;stroke-dasharray:2, 3;stroke-dashoffset:0"
         d="m 75.078,203.852 154.5,0 -50.898,-69.5 -103.602,69.5" /></g><g
       transform="matrix(0,-1,1,0,0,229.95308)"
       id="g44"><path
         inkscape:connector-curvature="0"
         id="path46"
         style="fill:none;stroke:#000000;stroke-width:1;stroke-linecap:butt;stroke-linejoin:miter;stroke-miterlimit:10;stroke-opacity:1;stroke-dasharray:none"
         d="m 52.379,198.852 -8.102,-5.403 9.7,0.602 m 21.101,9.801 -30.801,-10.403" /></g><g
       transform="matrix(0,-1,1,0,0,229.95308)"
       id="g48"><path
         inkscape:connector-curvature="0"
         id="path50"
         style="fill:none;stroke:#000000;stroke-width:1;stroke-linecap:butt;stroke-linejoin:miter;stroke-miterlimit:10;stroke-opacity:1;stroke-dasharray:none"
         d="m 52.379,198.852 -8.102,-5.403 9.7,0.602" /></g><g
       transform="matrix(0,-1,1,0,0,229.95308)"
       id="g52"><path
         inkscape:connector-curvature="0"
         id="path54"
         style="fill:none;stroke:#000000;stroke-width:1;stroke-linecap:butt;stroke-linejoin:miter;stroke-miterlimit:10;stroke-opacity:1;stroke-dasharray:none"
         d="m 73.977,226.852 -3.899,8.699 -1,-9.5 m 6,-22.199 -5,31.699" /></g><g
       transform="matrix(0,-1,1,0,0,229.95308)"
       id="g56"><path
         inkscape:connector-curvature="0"
         id="path58"
         style="fill:none;stroke:#000000;stroke-width:1;stroke-linecap:butt;stroke-linejoin:miter;stroke-miterlimit:10;stroke-opacity:1;stroke-dasharray:none"
         d="m 73.977,226.852 -3.899,8.699 -1,-9.5" /></g><g
       transform="matrix(0,-1,1,0,0,229.95308)"
       id="g60"><path
         inkscape:connector-curvature="0"
         id="path62"
         style="fill:none;stroke:#000000;stroke-width:1;stroke-linecap:butt;stroke-linejoin:miter;stroke-miterlimit:10;stroke-opacity:1;stroke-dasharray:none"
         d="m 57.977,218.25 -8.797,3 6.097,-7 M 75.078,203.852 49.18,221.25" /></g><g
       transform="matrix(0,-1,1,0,0,229.95308)"
       id="g64"><path
         inkscape:connector-curvature="0"
         id="path66"
         style="fill:none;stroke:#000000;stroke-width:1;stroke-linecap:butt;stroke-linejoin:miter;stroke-miterlimit:10;stroke-opacity:1;stroke-dasharray:none"
         d="m 57.977,218.25 -8.797,3 6.097,-7" /></g><g
       transform="matrix(0,-1,1,0,0,229.95308)"
       id="g68"><path
         inkscape:connector-curvature="0"
         id="path70"
         style="fill:none;stroke:#000000;stroke-width:1;stroke-linecap:butt;stroke-linejoin:miter;stroke-miterlimit:10;stroke-opacity:1;stroke-dasharray:none"
         d="M 49.879,52.551 40.078,54.25 47.68,47.852 M 70.18,40.051 40.078,54.25" /></g><g
       transform="matrix(0,-1,1,0,0,229.95308)"
       id="g72"><path
         inkscape:connector-curvature="0"
         id="path74"
         style="fill:none;stroke:#000000;stroke-width:1;stroke-linecap:butt;stroke-linejoin:miter;stroke-miterlimit:10;stroke-opacity:1;stroke-dasharray:none"
         d="M 49.879,52.551 40.078,54.25 47.68,47.852" /></g><g
       transform="matrix(0,-1,1,0,0,229.95308)"
       id="g76"><path
         inkscape:connector-curvature="0"
         id="path78"
         style="fill:none;stroke:#000000;stroke-width:1;stroke-linecap:butt;stroke-linejoin:miter;stroke-miterlimit:10;stroke-opacity:1;stroke-dasharray:none"
         d="m 77.277,59.852 -0.199,8.796 -4.199,-7.699 M 70.18,40.051 77.078,68.648" /></g><g
       transform="matrix(0,-1,1,0,0,229.95308)"
       id="g80"><path
         inkscape:connector-curvature="0"
         id="path82"
         style="fill:none;stroke:#000000;stroke-width:1;stroke-linecap:butt;stroke-linejoin:miter;stroke-miterlimit:10;stroke-opacity:1;stroke-dasharray:none"
         d="m 77.277,59.852 -0.199,8.796 -4.199,-7.699" /></g><g
       transform="matrix(0,-1,1,0,0,229.95308)"
       id="g84"><path
         inkscape:connector-curvature="0"
         id="path86"
         style="fill:none;stroke:#000000;stroke-width:1;stroke-linecap:butt;stroke-linejoin:miter;stroke-miterlimit:10;stroke-opacity:1;stroke-dasharray:none"
         d="m 53.277,28.352 -4.8,-7.102 7.703,3.699 m 14,15.102 L 48.477,21.25" /></g><g
       transform="matrix(0,-1,1,0,0,229.95308)"
       id="g88"><path
         inkscape:connector-curvature="0"
         id="path90"
         style="fill:none;stroke:#000000;stroke-width:1;stroke-linecap:butt;stroke-linejoin:miter;stroke-miterlimit:10;stroke-opacity:1;stroke-dasharray:none"
         d="m 53.277,28.352 -4.8,-7.102 7.703,3.699" /></g><path
       inkscape:connector-curvature="0"
       id="path92"
       style="fill:#000000;fill-opacity:1;fill-rule:nonzero;stroke:none"
       d="m 43.199,159.773 c 0,1.743 -1.41,3.153 -3.148,3.153 -1.739,0 -3.153,-1.41 -3.153,-3.153 0,-1.738 1.414,-3.148 3.153,-3.148 1.738,0 3.148,1.41 3.148,3.148" /><g
       transform="matrix(0,-1,1,0,0,229.95308)"
       id="g94"><path
         inkscape:connector-curvature="0"
         id="path96"
         style="fill:none;stroke:#000000;stroke-width:0.75;stroke-linecap:butt;stroke-linejoin:miter;stroke-miterlimit:10;stroke-opacity:1;stroke-dasharray:2, 3;stroke-dashoffset:0"
         d="m 70.18,40.051 154.5,0 -46,94.301 -108.5,-94.301" /></g><g
       transform="matrix(0,-1,1,0,0,229.95308)"
       id="g98"><path
         inkscape:connector-curvature="0"
         id="path100"
         style="fill:none;stroke:#000000;stroke-width:0.75;stroke-linecap:butt;stroke-linejoin:miter;stroke-miterlimit:10;stroke-opacity:1;stroke-dasharray:none"
         d="M 81.777,18.75 51.68,32.852 58.578,61.449 88.68,47.25 81.777,18.75 m 27.102,23.602 6.898,28.5 L 85.68,85.051 M 81.777,18.75 108.879,42.352 M 88.68,47.25 115.777,70.852 M 58.578,61.449 85.68,85.051" /></g><g
       transform="matrix(0,-1,1,0,0,229.95308)"
       id="g102"><path
         inkscape:connector-curvature="0"
         id="path104"
         style="fill:none;stroke:#000000;stroke-width:0.75;stroke-linecap:butt;stroke-linejoin:miter;stroke-miterlimit:10;stroke-opacity:1;stroke-dasharray:4, 2;stroke-dashoffset:0"
         d="m 51.68,32.852 27.199,23.597 6.801,28.602 m -6.801,-28.602 30,-14.097" /></g><text
       id="text106"
       transform="scale(1,-1)"
       x="138.82161"
       y="-217.41808"><tspan
         id="tspan108"
         y="-217.41808"
         x="138.82161"
         style="font-size:11.19999981px;font-variant:normal;font-weight:normal;writing-mode:lr-tb;fill:#000000;fill-opacity:1;fill-rule:nonzero;stroke:none;font-family:DejaVu Sans;-inkscape-font-specification:DejaVuSans">Z</tspan></text>
<text
       id="text114"
       transform="scale(1,-1)"
       x="1.455768"
       y="-21.267763"><tspan
         id="tspan116"
         y="-21.267763"
         x="1.455768"
         style="font-size:11.19999981px;font-variant:normal;font-weight:normal;writing-mode:lr-tb;fill:#000000;fill-opacity:1;fill-rule:nonzero;stroke:none;font-family:DejaVu Sans;-inkscape-font-specification:DejaVuSans">X</tspan></text>
<text
       id="text122"
       transform="scale(1,-1)"
       x="238.7782"
       y="-14.817758"><tspan
         id="tspan124"
         y="-14.817758"
         x="238.7782"
         style="font-size:12px;font-variant:normal;font-weight:normal;writing-mode:lr-tb;fill:#000000;fill-opacity:1;fill-rule:nonzero;stroke:none;font-family:DejaVu Sans;-inkscape-font-specification:DejaVuSans">Y</tspan></text>
<text
       id="text130"
       transform="scale(1,-1)"
       x="188.91992"
       y="-190.13782"
       style="-inkscape-font-specification:LMMathItalic9 Bold Italic;font-family:LMMathItalic9;font-weight:bold;font-style:italic;font-stretch:normal;font-variant:normal;font-size:12px"><tspan
         id="tspan132"
         y="-190.13782"
         x="188.91992"
         style="font-size:12px;font-variant:normal;font-weight:bold;writing-mode:lr-tb;fill:#000000;fill-opacity:1;fill-rule:nonzero;stroke:none;font-family:LMMathItalic9;-inkscape-font-specification:LMMathItalic9 Bold Italic;font-style:italic;font-stretch:normal">x</tspan></text>
<text
       id="text138"
       transform="scale(1,-1)"
       x="224.39146"
       y="-183.70422"
       style="-inkscape-font-specification:LMMathItalic9 Bold Italic;font-family:LMMathItalic9;font-weight:bold;font-style:italic;font-stretch:normal;font-variant:normal;font-size:12px"><tspan
         id="tspan140"
         y="-183.70422"
         x="224.39146"
         style="font-size:12px;font-variant:normal;font-weight:bold;writing-mode:lr-tb;fill:#000000;fill-opacity:1;fill-rule:nonzero;stroke:none;font-family:LMMathItalic9;-inkscape-font-specification:LMMathItalic9 Bold Italic;font-style:italic;font-stretch:normal">z</tspan></text>
<text
       id="text146"
       transform="scale(1,-1)"
       x="239.64548"
       y="-157.39413"
       style="-inkscape-font-specification:LMMathItalic9 Bold Italic;font-family:LMMathItalic9;font-weight:bold;font-style:italic;font-stretch:normal;font-variant:normal;font-size:12px"><tspan
         id="tspan148"
         y="-157.39413"
         x="239.64548"
         style="font-size:12px;font-variant:normal;font-weight:bold;writing-mode:lr-tb;fill:#000000;fill-opacity:1;fill-rule:nonzero;stroke:none;font-family:LMMathItalic9;-inkscape-font-specification:LMMathItalic9 Bold Italic;font-style:italic;font-stretch:normal">y</tspan></text>
<text
       id="text154"
       transform="scale(1,-1)"
       x="116.11601"
       y="-75.113869"><tspan
         id="tspan156"
         y="-75.113869"
         x="116.11601"
         style="font-size:11.19999981px;font-variant:normal;font-weight:normal;writing-mode:lr-tb;fill:#000000;fill-opacity:1;fill-rule:nonzero;stroke:none;font-family:Bitstream Charter;-inkscape-font-specification:BitstreamVeraSans">r</tspan></text>
<text
       id="text158"
       transform="scale(1,-1)"
       x="57.022572"
       y="-189.50005"
       style="-inkscape-font-specification:LMMathItalic9 Bold Italic;font-family:LMMathItalic9;font-weight:bold;font-style:italic;font-stretch:normal;font-variant:normal;font-size:12px"><tspan
         id="tspan160"
         y="-189.50005"
         x="57.022572"
         style="font-size:12px;font-variant:normal;font-weight:bold;writing-mode:lr-tb;fill:#000000;fill-opacity:1;fill-rule:nonzero;stroke:none;font-family:LMMathItalic9;-inkscape-font-specification:LMMathItalic9 Bold Italic;font-style:italic;font-stretch:normal">x</tspan></text>
<text
       id="text166"
       transform="scale(1,-1)"
       x="22.138763"
       y="-183.09895"
       style="-inkscape-font-specification:LMMathItalic9 Bold Italic;font-family:LMMathItalic9;font-weight:bold;font-style:italic;font-stretch:normal;font-variant:normal;font-size:12px"><tspan
         id="tspan168"
         y="-183.09895"
         x="22.138763"
         style="font-size:12px;font-variant:normal;font-weight:bold;writing-mode:lr-tb;fill:#000000;fill-opacity:1;fill-rule:nonzero;stroke:none;font-family:LMMathItalic9;-inkscape-font-specification:LMMathItalic9 Bold Italic;font-style:italic;font-stretch:normal">z</tspan></text>
<text
       id="text174"
       transform="scale(1,-1)"
       x="58.99794"
       y="-160.59355"
       style="font-size:12px;font-style:italic;font-variant:normal;font-weight:bold;font-stretch:normal;font-family:LMMathItalic9;-inkscape-font-specification:LMMathItalic9 Bold Italic"><tspan
         id="tspan176"
         y="-160.59355"
         x="58.99794"
         style="font-size:12px;font-style:italic;font-variant:normal;font-weight:bold;font-stretch:normal;writing-mode:lr-tb;fill:#000000;fill-opacity:1;fill-rule:nonzero;stroke:none;font-family:LMMathItalic9;-inkscape-font-specification:LMMathItalic9 Bold Italic">y</tspan></text>
<text
       id="text182"
       transform="scale(1,-1)"
       x="208.6972"
       y="-144.211"><tspan
         id="tspan184"
         y="-144.211"
         x="208.6972"
         style="font-size:11.19999981px;font-variant:normal;font-weight:normal;writing-mode:lr-tb;fill:#000000;fill-opacity:1;fill-rule:nonzero;stroke:none;font-family:Bitstream Charter;-inkscape-font-specification:BitstreamVeraSans">P</tspan><tspan
         id="tspan186"
         y="-149.23842"
         x="29.131674"
         style="font-size:11.19999981px;font-variant:normal;font-weight:normal;writing-mode:lr-tb;fill:#000000;fill-opacity:1;fill-rule:nonzero;stroke:none;font-family:Bitstream Charter;-inkscape-font-specification:BitstreamVeraSans">Q</tspan></text>
<g
       transform="matrix(1,0,0,-1,0,229.95308)"
       id="g188"><path
         inkscape:connector-curvature="0"
         id="path190"
         style="fill:none;stroke:#000000;stroke-width:1.03999996;stroke-linecap:butt;stroke-linejoin:miter;stroke-miterlimit:4;stroke-opacity:1;stroke-dasharray:none"
         d="m 76.004,194.707 c 0.039,3.734 3.348,4.816 7.676,7.68" /></g><g
       transform="matrix(-1,0.661312,0.661312,1,0,229.95308)"
       id="g192"><path
         inkscape:connector-curvature="0"
         id="path194"
         style="fill:#000000;fill-opacity:1;fill-rule:evenodd;stroke:#000000;stroke-width:0.43373501;stroke-linecap:butt;stroke-linejoin:miter;stroke-miterlimit:4;stroke-opacity:1;stroke-dasharray:none"
         d="m -147.866,-102.304 1.734,-1.737 -6.072,1.734 6.075,1.737 -1.737,-1.734 z" /></g><g
       transform="matrix(1,0,0,-1,0,229.95308)"
       id="g196"><path
         inkscape:connector-curvature="0"
         id="path198"
         style="fill:none;stroke:#000000;stroke-width:1.03999996;stroke-linecap:butt;stroke-linejoin:miter;stroke-miterlimit:4;stroke-opacity:1;stroke-dasharray:none"
         d="M 87.012,201.527 C 80.305,183.02 76.555,157.234 88.625,130.414" /></g><g
       transform="matrix(-0.450174,-1,-1,0.450174,0,229.95308)"
       id="g200"><path
         inkscape:connector-curvature="0"
         id="path202"
         style="fill:#000000;fill-opacity:1;fill-rule:evenodd;stroke:#000000;stroke-width:0.474168;stroke-linecap:butt;stroke-linejoin:miter;stroke-miterlimit:4;stroke-opacity:1;stroke-dasharray:none"
         d="m 79.057,-122.508 1.897,-1.896 -6.64,1.895 6.64,1.898 -1.897,-1.897 z" /></g><g
       transform="matrix(1,0,0,-1,0,229.95308)"
       id="g204"><path
         inkscape:connector-curvature="0"
         id="path206"
         style="fill:none;stroke:#000000;stroke-width:1.03999996;stroke-linecap:butt;stroke-linejoin:miter;stroke-miterlimit:4;stroke-opacity:1;stroke-dasharray:none"
         d="m 107.52,187.031 c 14.472,7.535 24.839,7.051 37.171,2.828" /></g><g
       transform="matrix(-1,-0.342493,-0.342493,1,0,229.95308)"
       id="g208"><path
         inkscape:connector-curvature="0"
         id="path210"
         style="fill:#000000;fill-opacity:1;fill-rule:evenodd;stroke:#000000;stroke-width:0.491947;stroke-linecap:butt;stroke-linejoin:miter;stroke-miterlimit:4;stroke-opacity:1;stroke-dasharray:none"
         d="m -67.368,-214.28 1.966,-1.967 -6.884,1.966 6.885,1.967 -1.967,-1.966 z" /></g><g
       transform="matrix(1,0,0,-1,0,229.95308)"
       id="g212"><path
         inkscape:connector-curvature="0"
         id="path214"
         style="fill:none;stroke:#000000;stroke-width:1.03999996;stroke-linecap:butt;stroke-linejoin:miter;stroke-miterlimit:4;stroke-opacity:1;stroke-dasharray:none"
         d="m 150.352,190.266 c 6.527,-10.473 7.609,-15.391 1.21,-32.328" /></g><g
       transform="matrix(0.3777,-1,-1,-0.3777,0,229.95308)"
       id="g216"><path
         inkscape:connector-curvature="0"
         id="path218"
         style="fill:#000000;fill-opacity:1;fill-rule:evenodd;stroke:#000000;stroke-width:0.486458;stroke-linecap:butt;stroke-linejoin:miter;stroke-miterlimit:4;stroke-opacity:1;stroke-dasharray:none"
         d="m 192.212,-80.433 1.945,-1.945 -6.812,1.943 6.811,1.948 -1.944,-1.946 z" /></g><g
       transform="matrix(1,0,0,-1,0,229.95308)"
       id="g220"><path
         inkscape:connector-curvature="0"
         id="path222"
         style="fill:none;stroke:#000000;stroke-width:1.03999996;stroke-linecap:butt;stroke-linejoin:miter;stroke-miterlimit:4;stroke-opacity:1;stroke-dasharray:none"
         d="M 134.188,178.141 156.41,146.223" /></g><g
       transform="matrix(-0.696202,-1,-1,0.696202,0,229.95308)"
       id="g224"><path
         inkscape:connector-curvature="0"
         id="path226"
         style="fill:#000000;fill-opacity:1;fill-rule:evenodd;stroke:#000000;stroke-width:0.426761;stroke-linecap:butt;stroke-linejoin:miter;stroke-miterlimit:4;stroke-opacity:1;stroke-dasharray:none"
         d="m 28.556,-173.916 1.708,-1.705 -5.976,1.708 5.974,1.707 -1.706,-1.71 z" /></g><g
       transform="matrix(1,0,0,-1,0,229.95308)"
       id="g228"><path
         inkscape:connector-curvature="0"
         id="path230"
         style="fill:none;stroke:#000000;stroke-width:1.03999996;stroke-linecap:butt;stroke-linejoin:miter;stroke-miterlimit:4;stroke-opacity:1;stroke-dasharray:none"
         d="M 133.785,178.141 105.094,145.008" /></g><g
       transform="matrix(0.865853,-1,-1,-0.865853,0,229.95308)"
       id="g232"><path
         inkscape:connector-curvature="0"
         id="path234"
         style="fill:#000000;fill-opacity:1;fill-rule:evenodd;stroke:#000000;stroke-width:0.393116;stroke-linecap:butt;stroke-linejoin:miter;stroke-miterlimit:4;stroke-opacity:1;stroke-dasharray:none"
         d="m 138.027,11.694 1.574,-1.574 -5.504,1.574 5.504,1.575 -1.574,-1.575 z" /></g><text
       id="text236"
       transform="scale(1,-1)"
       x="140.28217"
       y="-74.550797"><tspan
         id="tspan238"
         y="-74.550797"
         x="140.28217"
         style="font-size:11.19999981px;font-variant:normal;font-weight:normal;writing-mode:lr-tb;fill:#000000;fill-opacity:1;fill-rule:nonzero;stroke:none;font-family:Bitstream Charter;-inkscape-font-specification:BitstreamVeraSans">r</tspan></text>
<text
       id="text240"
       transform="scale(1,-1)"
       x="119.60884"
       y="-72.466812"><tspan
         id="tspan242"
         y="-72.466812"
         x="119.60884"
         style="font-size:4.80000019px;font-variant:normal;font-weight:normal;writing-mode:lr-tb;fill:#000000;fill-opacity:1;fill-rule:nonzero;stroke:none;font-family:Bitstream Charter;-inkscape-font-specification:BitstreamVeraSansBold">Q</tspan><tspan
         id="tspan244"
         y="-73.136169"
         x="145.10826"
         style="font-size:4.80000019px;font-variant:normal;font-weight:normal;writing-mode:lr-tb;fill:#000000;fill-opacity:1;fill-rule:nonzero;stroke:none;font-family:Bitstream Charter;-inkscape-font-specification:BitstreamVeraSansBold">P</tspan></text>
<text
       id="text246"
       transform="scale(1,-1)"
       x="70.335709"
       y="-21.448233"><tspan
         id="tspan248"
         y="-21.448233"
         x="70.335709"
         style="font-size:11.19999981px;font-variant:normal;font-weight:normal;writing-mode:lr-tb;fill:#000000;fill-opacity:1;fill-rule:nonzero;stroke:none;font-family:DejaVu Sans;-inkscape-font-specification:DejaVuSans">λ</tspan><tspan
         id="tspan250"
         y="-26.591082"
         x="125.70715"
         style="font-size:11.19999981px;font-variant:normal;font-weight:normal;writing-mode:lr-tb;fill:#000000;fill-opacity:1;fill-rule:nonzero;stroke:none;font-family:DejaVu Sans;-inkscape-font-specification:DejaVuSans">λ</tspan></text>
<text
       id="text252"
       transform="scale(1,-1)"
       x="132.44882"
       y="-24.652382"><tspan
         id="tspan254"
         y="-24.652382"
         x="132.44882"
         style="font-size:4.80000019px;font-variant:normal;font-weight:normal;writing-mode:lr-tb;fill:#000000;fill-opacity:1;fill-rule:nonzero;stroke:none;font-family:Bitstream Charter;-inkscape-font-specification:BitstreamVeraSansBold">P</tspan><tspan
         id="tspan256"
         y="-19.176355"
         x="76.78952"
         style="font-size:4.80000019px;font-variant:normal;font-weight:normal;writing-mode:lr-tb;fill:#000000;fill-opacity:1;fill-rule:nonzero;stroke:none;font-family:Bitstream Charter;-inkscape-font-specification:BitstreamVeraSansBold">Q</tspan></text>
<text
       id="text258"
       transform="scale(1,-1)"
       x="157.19286"
       y="-56.105362"><tspan
         id="tspan260"
         y="-56.105362"
         x="157.19286"
         style="font-size:11.19999981px;font-variant:normal;font-weight:normal;writing-mode:lr-tb;fill:#000000;fill-opacity:1;fill-rule:nonzero;stroke:none;font-family:DejaVu Sans;-inkscape-font-specification:DejaVuSans">φ</tspan><tspan
         id="tspan262"
         y="-58.90012"
         x="67.657967"
         style="font-size:11.19999981px;font-variant:normal;font-weight:normal;writing-mode:lr-tb;fill:#000000;fill-opacity:1;fill-rule:nonzero;stroke:none;font-family:DejaVu Sans;-inkscape-font-specification:DejaVuSans">φ</tspan></text>
<text
       id="text264"
       transform="scale(1,-1)"
       x="164.10637"
       y="-52.04147"><tspan
         id="tspan266"
         y="-52.04147"
         x="164.10637"
         style="font-size:4.80000019px;font-variant:normal;font-weight:normal;writing-mode:lr-tb;fill:#000000;fill-opacity:1;fill-rule:nonzero;stroke:none;font-family:Bitstream Charter;-inkscape-font-specification:BitstreamVeraSansBold">P</tspan><tspan
         id="tspan268"
         y="-54.633499"
         x="73.589508"
         style="font-size:4.80000019px;font-variant:normal;font-weight:normal;writing-mode:lr-tb;fill:#000000;fill-opacity:1;fill-rule:nonzero;stroke:none;font-family:Bitstream Charter;-inkscape-font-specification:BitstreamVeraSansBold">Q</tspan></text>
</g></svg>