<?xml version="1.0" encoding="UTF-8" standalone="no"?>
<!-- Created with Inkscape (http://www.inkscape.org/) -->

<svg
   xmlns:dc="http://purl.org/dc/elements/1.1/"
   xmlns:cc="http://creativecommons.org/ns#"
   xmlns:rdf="http://www.w3.org/1999/02/22-rdf-syntax-ns#"
   xmlns:svg="http://www.w3.org/2000/svg"
   xmlns="http://www.w3.org/2000/svg"
   xmlns:sodipodi="http://sodipodi.sourceforge.net/DTD/sodipodi-0.dtd"
   xmlns:inkscape="http://www.inkscape.org/namespaces/inkscape"
   id="svg2"
   version="1.1"
   inkscape:version="0.48.2 r9819"
   width="323.42113"
   height="273.75876"
   xml:space="preserve"
   sodipodi:docname="tesseroid.svg"
   inkscape:export-filename="/home/leo/src/tesseroids/doc-dev/docs/img/tesseroid.png"
   inkscape:export-xdpi="150"
   inkscape:export-ydpi="150"><metadata
     id="metadata8"><rdf:RDF><cc:Work
         rdf:about=""><dc:format>image/svg+xml</dc:format><dc:type
           rdf:resource="http://purl.org/dc/dcmitype/StillImage" /><dc:title></dc:title></cc:Work></rdf:RDF></metadata><defs
     id="defs6"><marker
       inkscape:stockid="Arrow1Mend"
       orient="auto"
       refY="0.0"
       refX="0.0"
       id="Arrow1Mend"
       style="overflow:visible;"><path
         id="path4059"
         d="M 0.0,0.0 L 5.0,-5.0 L -12.5,0.0 L 5.0,5.0 L 0.0,0.0 z "
         style="fill-rule:evenodd;stroke:#000000;stroke-width:1.0pt;marker-start:none;"
         transform="scale(0.4) rotate(180) translate(10,0)" /></marker></defs><sodipodi:namedview
     pagecolor="#ffffff"
     bordercolor="#666666"
     borderopacity="1"
     objecttolerance="10"
     gridtolerance="10"
     guidetolerance="10"
     inkscape:pageopacity="0"
     inkscape:pageshadow="2"
     inkscape:window-width="1680"
     inkscape:window-height="1001"
     id="namedview4"
     showgrid="false"
     inkscape:zoom="1.7241457"
     inkscape:cx="127.07974"
     inkscape:cy="155.90233"
     inkscape:window-x="0"
     inkscape:window-y="25"
     inkscape:window-maximized="1"
     inkscape:current-layer="g10" /><g
     id="g10"
     inkscape:groupmode="layer"
     inkscape:label="tesseroid_coordsys"
     transform="matrix(1.25,0,0,-1.25,0,273.75875)"><text
       id="text14"
       transform="scale(1,-1)"
       x="157.12009"
       y="-206.01485"><tspan
         id="tspan16"
         y="-206.01485"
         x="157.12009"
         style="font-size:11.19999981px;font-variant:normal;font-weight:normal;writing-mode:lr-tb;fill:#000000;fill-opacity:1;fill-rule:nonzero;stroke:none;font-family:DejaVu Sans;-inkscape-font-specification:DejaVuSans">Z</tspan></text>
<text
       id="text22"
       transform="scale(1,-1)"
       x="3.5918"
       y="-19.96607"><tspan
         id="tspan24"
         y="-19.96607"
         x="3.5918"
         style="font-size:11.19999981px;font-variant:normal;font-weight:normal;writing-mode:lr-tb;fill:#000000;fill-opacity:1;fill-rule:nonzero;stroke:none;font-family:DejaVu Sans;-inkscape-font-specification:DejaVuSans">X</tspan></text>
<text
       id="text30"
       transform="scale(1,-1)"
       x="243.33861"
       y="-13.920123"><tspan
         id="tspan32"
         y="-13.920123"
         x="243.33861"
         style="font-size:12px;font-variant:normal;font-weight:normal;writing-mode:lr-tb;fill:#000000;fill-opacity:1;fill-rule:nonzero;stroke:none;font-family:DejaVu Sans;-inkscape-font-specification:DejaVuSans">Y</tspan></text>
<text
       id="text38"
       transform="scale(1,-1)"
       x="177.5975"
       y="-142.26564"
       style="font-size:16px;font-style:italic;font-variant:normal;font-weight:bold;font-stretch:normal;font-family:LMMathItalic9;-inkscape-font-specification:LMMathItalic9 Bold Italic"><tspan
         id="tspan40"
         y="-142.26564"
         x="177.5975"
         style="font-size:16px;font-style:italic;font-variant:normal;font-weight:bold;font-stretch:normal;writing-mode:lr-tb;fill:#000000;fill-opacity:1;fill-rule:nonzero;stroke:none;font-family:LMMathItalic9;-inkscape-font-specification:LMMathItalic9 Bold Italic">x</tspan></text>
<text
       id="text46"
       transform="scale(1,-1)"
       x="204.22818"
       y="-127.77508"
       style="font-size:16px;font-style:italic;font-variant:normal;font-weight:bold;font-stretch:normal;font-family:LMMathItalic9;-inkscape-font-specification:LMMathItalic9 Bold Italic"><tspan
         id="tspan48"
         y="-127.77508"
         x="204.22818"
         style="font-size:16px;font-style:italic;font-variant:normal;font-weight:bold;font-stretch:normal;writing-mode:lr-tb;fill:#000000;fill-opacity:1;fill-rule:nonzero;stroke:none;font-family:LMMathItalic9;-inkscape-font-specification:LMMathItalic9 Bold Italic">z</tspan></text>
<text
       id="text54"
       transform="scale(1,-1)"
       x="227.78802"
       y="-105.76098"
       style="font-size:16px;font-style:italic;font-variant:normal;font-weight:bold;font-stretch:normal;font-family:LMMathItalic9;-inkscape-font-specification:LMMathItalic9 Bold Italic"><tspan
         id="tspan56"
         y="-105.76098"
         x="227.78802"
         style="font-size:16px;font-style:italic;font-variant:normal;font-weight:bold;font-stretch:normal;writing-mode:lr-tb;fill:#000000;fill-opacity:1;fill-rule:nonzero;stroke:none;font-family:LMMathItalic9;-inkscape-font-specification:LMMathItalic9 Bold Italic">y</tspan></text>
<text
       id="text62"
       transform="scale(1,-1)"
       x="191.87868"
       y="-84.305389"><tspan
         id="tspan64"
         y="-84.305389"
         x="191.87868"
         style="font-size:11.19999981px;font-variant:normal;font-weight:normal;writing-mode:lr-tb;fill:#000000;fill-opacity:1;fill-rule:nonzero;stroke:none;font-family:Bitstream Charter;-inkscape-font-specification:BitstreamVeraSans">P</tspan><tspan
         id="tspan66"
         y="-117.46493"
         x="90.572517"
         style="font-size:11.19999981px;font-variant:normal;font-weight:normal;writing-mode:lr-tb;fill:#000000;fill-opacity:1;fill-rule:nonzero;stroke:none;font-family:Bitstream Charter;-inkscape-font-specification:BitstreamVeraSans">Q</tspan></text>
<text
       id="text68"
       transform="scale(1,-1)"
       x="138.66356"
       y="-101.49658"><tspan
         id="tspan70"
         y="-101.49658"
         x="138.66356"
         style="font-size:12.80000019px;font-variant:normal;font-weight:normal;writing-mode:lr-tb;fill:#000000;fill-opacity:1;fill-rule:nonzero;stroke:none;font-family:LMMathItalic9;-inkscape-font-specification:LMMathItalic9">l</tspan></text>
<text
       id="text72"
       transform="scale(1,-1)"
       x="162.32716"
       y="-61.253803"><tspan
         id="tspan74"
         y="-61.253803"
         x="162.32716"
         style="font-size:11.19999981px;font-variant:normal;font-weight:normal;writing-mode:lr-tb;fill:#000000;fill-opacity:1;fill-rule:nonzero;stroke:none;font-family:Bitstream Charter;-inkscape-font-specification:BitstreamVeraSans">r</tspan></text>
<text
       id="text76"
       transform="scale(1,-1)"
       x="170.87801"
       y="-33.315144"><tspan
         id="tspan78"
         y="-33.315144"
         x="170.87801"
         style="font-size:11.19999981px;font-variant:normal;font-weight:normal;writing-mode:lr-tb;fill:#000000;fill-opacity:1;fill-rule:nonzero;stroke:none;font-family:DejaVu Sans;-inkscape-font-specification:DejaVuSans">φ</tspan><tspan
         id="tspan80"
         y="-8.5217819"
         x="131.88818"
         style="font-size:11.19999981px;font-variant:normal;font-weight:normal;writing-mode:lr-tb;fill:#000000;fill-opacity:1;fill-rule:nonzero;stroke:none;font-family:DejaVu Sans;-inkscape-font-specification:DejaVuSans">λ</tspan></text>
<g
       transform="matrix(1,0,0,-1,0,219.007)"
       id="g82"><path
         inkscape:connector-curvature="0"
         id="path84"
         style="fill:none;stroke:#000000;stroke-width:1.03999996;stroke-linecap:butt;stroke-linejoin:miter;stroke-miterlimit:4;stroke-opacity:1;stroke-dasharray:none"
         d="m 108.32,194.363 c 10.75,4.961 35.731,7.606 52.93,2.02" /></g><g
       transform="matrix(-1,-0.32486,-0.32486,1,0,219.007)"
       id="g86"><path
         inkscape:connector-curvature="0"
         id="path88"
         style="fill:#000000;fill-opacity:1;fill-rule:evenodd;stroke:#000000;stroke-width:0.49455801;stroke-linecap:butt;stroke-linejoin:miter;stroke-miterlimit:4;stroke-opacity:1;stroke-dasharray:none"
         d="m -84.193,-225.019 1.978,-1.978 -6.923,1.977 6.923,1.98 -1.978,-1.979 z" /></g><g
       transform="matrix(1,0,0,-1,0,219.007)"
       id="g90"><path
         inkscape:connector-curvature="0"
         id="path92"
         style="fill:none;stroke:#000000;stroke-width:1.03999996;stroke-linecap:butt;stroke-linejoin:miter;stroke-miterlimit:4;stroke-opacity:1;stroke-dasharray:none"
         d="M 151.719,188.637 177.984,139.34" /></g><g
       transform="matrix(-0.532787,-1,-1,0.532787,0,219.007)"
       id="g94"><path
         inkscape:connector-curvature="0"
         id="path96"
         style="fill:#000000;fill-opacity:1;fill-rule:evenodd;stroke:#000000;stroke-width:0.45892799;stroke-linecap:butt;stroke-linejoin:miter;stroke-miterlimit:4;stroke-opacity:1;stroke-dasharray:none"
         d="m 38.343,-196.456 1.834,-1.836 -6.424,1.836 6.426,1.834 -1.836,-1.834 z" /></g><g
       transform="matrix(1,0,0,-1,0,219.007)"
       id="g98"><path
         inkscape:connector-curvature="0"
         id="path100"
         style="fill:none;stroke:#000000;stroke-width:1.03999996;stroke-linecap:butt;stroke-linejoin:miter;stroke-miterlimit:4;stroke-opacity:1;stroke-dasharray:none"
         d="m 165.613,196.551 c 4.309,-11.91 1.817,-21.617 -1.211,-28.285" /></g><g
       transform="matrix(0.454159,-1,-1,-0.454159,0,219.007)"
       id="g102"><path
         inkscape:connector-curvature="0"
         id="path104"
         style="fill:#000000;fill-opacity:1;fill-rule:evenodd;stroke:#000000;stroke-width:0.47345999;stroke-linecap:butt;stroke-linejoin:miter;stroke-miterlimit:4;stroke-opacity:1;stroke-dasharray:none"
         d="m 205.18,-72.937 1.891,-1.895 -6.625,1.894 6.628,1.893 -1.894,-1.892 z" /></g><g
       transform="matrix(1,0,0,-1,0,219.007)"
       id="g106"><path
         inkscape:connector-curvature="0"
         id="path108"
         style="fill:none;stroke:#000000;stroke-width:0.5;stroke-linecap:butt;stroke-linejoin:miter;stroke-miterlimit:10;stroke-opacity:1;stroke-dasharray:1, 1.5;stroke-dashoffset:0"
         d="m 28.613,203.672 0,-2.301 0.102,-2.398 0.097,-2.403 0.102,-2.3 0.102,-2.399 0.199,-2.398 0.199,-2.301 0.199,-2.402 0.301,-2.297 0.301,-2.403 0.301,-2.398 0.296,-2.301 0.403,-2.398 0.398,-2.301 0.5,-2.402 0.5,-2.297 0.5,-2.301 0.5,-2.402 0.602,-2.297 0.597,-2.301 0.602,-2.301 0.602,-2.301 0.699,-2.3 0.699,-2.2 0.801,-2.3 0.801,-2.297 0.699,-2.203 0.898,-2.2 0.801,-2.3 0.898,-2.2 0.903,-2.199 1,-2.101 0.898,-2.2 1,-2.097 1,-2.203 1.102,-2.098 1,-2.102 1.097,-2.097 1.204,-2 1.097,-2.102 1.199,-2 1.204,-2 1.199,-2 1.199,-2 1.301,-1.898 1.301,-1.903 1.296,-1.898 1.403,-1.902 1.301,-1.899 1.398,-1.801 1.398,-1.8 1.403,-1.797 1.5,-1.703 1.5,-1.797 1.398,-1.703 1.5,-1.598 1.602,-1.699 1.5,-1.602 1.597,-1.601 1.602,-1.598 1.602,-1.5 1.597,-1.602 1.602,-1.398 1.699,-1.5 1.699,-1.402 1.602,-1.399 1.699,-1.398 1.801,-1.301 1.699,-1.301 1.699,-1.301 1.801,-1.199 1.801,-1.301 1.801,-1.097 1.699,-1.203 1.898,-1.098 1.801,-1.102 1.801,-1 1.898,-1 1.801,-1 1.898,-0.898 1.801,-0.902 1.903,-0.899 1.898,-0.898 1.898,-0.801 1.903,-0.699 1.898,-0.801 1.903,-0.699 2,-0.602 1.898,-0.601 1.898,-0.598 2,-0.602 1.903,-0.5 2,-0.5 1.898,-0.398 2,-0.402 1.903,-0.399 2,-0.301 1.898,-0.3 2,-0.297 m -90.602,169.097 0,-2.398 0.102,-2.301 0,-2.398 0.102,-2.403 0.097,-2.3 0.102,-2.399 0.199,-2.398 0.102,-2.301 0.199,-2.402 0.301,-2.399 0.199,-2.398 0.199,-2.301 0.301,-2.402 0.301,-2.399 0.398,-2.301 0.301,-2.398 0.398,-2.402 0.403,-2.297 0.398,-2.403 0.398,-2.3 0.5,-2.297 0.5,-2.403 0.5,-2.3 0.5,-2.297 0.5,-2.301 0.602,-2.301 0.602,-2.301 0.597,-2.199 0.602,-2.301 0.699,-2.199 0.602,-2.301 0.699,-2.199 0.699,-2.199 0.801,-2.199 0.699,-2.203 0.801,-2.098 0.801,-2.199 0.796,-2.102 0.801,-2.101 0.801,-2.098 0.898,-2.102 0.903,-2.097 0.898,-2 0.903,-2 0.898,-2.102 1,-1.898 0.898,-2 1,-1.903 1,-2 1,-1.898 1.102,-1.801 1,-1.898 1.102,-1.801 1.097,-1.801 1.102,-1.801 1.097,-1.699 1.102,-1.801 1.102,-1.699 1.199,-1.601 1.097,-1.7 1.204,-1.597 1.199,-1.602 1.199,-1.601 1.199,-1.5 1.301,-1.5 1.199,-1.5 1.199,-1.399 1.301,-1.398 1.301,-1.403 1.301,-1.398 1.199,-1.301 1.398,-1.301 1.301,-1.3 1.301,-1.2 1.301,-1.199 1.398,-1.199 1.301,-1.102 1.398,-1.097 1.301,-1.102 1.403,-1 1.398,-1 1.301,-0.898 1.398,-1 1.403,-0.903 1.398,-0.8 1.398,-0.899 1.403,-0.699 1.398,-0.801 1.5,-0.699 1.403,-0.699 1.398,-0.602 1.398,-0.601 1.5,-0.598 1.403,-0.5 1.398,-0.5 1.5,-0.5 1.403,-0.402 1.398,-0.399 1.5,-0.398 m -49,172.898 0,-7.101 0.102,-2.297 0,-2.403 0.097,-2.398 0.102,-2.402 0.097,-2.297 0.102,-2.403 0.102,-2.398 0.097,-2.402 0.199,-2.399 0.102,-2.398 0.199,-2.301 0.199,-2.402 0.204,-2.399 0.199,-2.398 0.199,-2.301 0.199,-2.402 0.199,-2.399 0.301,-2.301 0.199,-2.398 0.301,-2.301 0.301,-2.301 0.301,-2.3 0.301,-2.399 0.296,-2.301 0.301,-2.3 0.403,-2.297 0.296,-2.203 0.403,-2.297 0.398,-2.203 0.301,-2.297 0.398,-2.203 0.403,-2.2 0.5,-2.199 0.398,-2.199 0.403,-2.199 0.5,-2.102 0.398,-2.101 0.5,-2.2 0.5,-2.097 0.398,-2 0.5,-2.102 0.5,-2.101 0.602,-2 0.5,-2 0.5,-2 0.602,-1.899 0.5,-2 0.597,-1.898 0.5,-1.903 0.602,-1.8 0.597,-1.899 0.602,-1.801 0.602,-1.8 0.597,-1.797 0.602,-1.703 0.597,-1.797 0.704,-1.703 0.597,-1.598 0.602,-1.699 0.699,-1.602 0.602,-1.601 0.699,-1.5 0.699,-1.598 0.699,-1.5 0.602,-1.402 0.699,-1.5 0.699,-1.399 0.699,-1.398 0.704,-1.301 0.699,-1.301 0.699,-1.301 0.801,-1.3 0.699,-1.2 0.699,-1.199 0.699,-1.101 0.801,-1.2 0.699,-1.097 0.801,-1 0.699,-1 0.801,-1 0.699,-1 0.801,-0.903 0.699,-0.898 0.801,-0.801 0.801,-0.801 0.699,-0.8 0.801,-0.7 0.801,-0.699 0.699,-0.699 0.801,-0.602 0.801,-0.597 0.796,-0.602 0.704,-0.5 0.796,-0.5 0.801,-0.5 0.801,-0.398 m -2.699,174.297 0,-9.399 0.097,-2.398 0,-31 0.102,-2.301 0,-14.102 0.102,-2.398 0,-9.199 0.097,-2.203 0,-9 0.102,-2.2 0,-6.597 0.097,-2.102 0,-6.301 0.102,-2.097 0,-6.102 0.102,-2 0,-4 0.097,-1.898 0,-5.703 0.102,-1.797 0,-3.602 0.097,-1.801 0,-3.398 0.102,-1.699 0,-3.301 0.102,-1.602 0,-1.597 0.097,-1.602 0,-3 0.102,-1.398 0,-2.903 0.097,-1.3 0,-1.399 0.102,-1.301 0,-2.5 0.102,-1.199 0,-2.301 0.097,-1.097 0,-1.102 0.102,-1 0,-2 0.097,-1 0,-0.898 0.102,-0.801 0,-0.902 0.102,-0.797 0,-1.5 0.097,-0.703 0,-0.598 0.102,-0.602 0,-1.199 0.097,-0.5 0,-0.398 0.102,-0.5 m 44,173.199 0,-2.402 -0.102,-2.297 0,-4.703 -0.097,-2.399 0,-2.398 -0.102,-2.403 -0.097,-2.398 -0.102,-2.301 -0.102,-2.398 -0.097,-2.403 -0.102,-2.398 -0.199,-2.402 -0.102,-2.399 -0.199,-2.301 -0.097,-2.398 -0.204,-2.402 -0.199,-2.399 -0.199,-2.301 -0.199,-2.398 -0.301,-2.301 -0.199,-2.398 -0.199,-2.301 -0.301,-2.402 -0.301,-2.297 -0.199,-2.301 -0.301,-2.301 -0.301,-2.301 -0.301,-2.3 -0.296,-2.297 -0.403,-2.203 -0.301,-2.297 -0.296,-2.203 -0.403,-2.297 -0.301,-2.203 -0.398,-2.2 -0.398,-2.199 -0.403,-2.101 -0.398,-2.2 -0.403,-2.097 -0.398,-2.102 -0.5,-2.101 -0.398,-2.098 -0.403,-2.102 -0.5,-2 -0.398,-2.097 -0.5,-2 -0.5,-2 -0.5,-1.903 -0.5,-2 -0.5,-1.898 -0.5,-1.902 -0.5,-1.899 -0.5,-1.801 -0.602,-1.8 -0.5,-1.797 -0.5,-1.801 -0.597,-1.801 -0.5,-1.699 -0.602,-1.699 -0.602,-1.703 -0.597,-1.598 -0.5,-1.602 -0.602,-1.597 -0.597,-1.602 -0.602,-1.5 -0.602,-1.5 -0.699,-1.5 -0.597,-1.398 -0.602,-1.5 -0.602,-1.301 -0.699,-1.402 -0.597,-1.297 -0.602,-1.301 -0.699,-1.301 -0.602,-1.199 -0.699,-1.199 -0.602,-1.102 -0.699,-1.199 -0.699,-1.102 -0.602,-1 -0.699,-1.097 -0.699,-0.903 -0.699,-1 -0.602,-0.898 -0.699,-0.902 -0.699,-0.899 -0.699,-0.801 -0.704,-0.8 -0.699,-0.7 -0.699,-0.699 -0.699,-0.699 -0.602,-0.602 -0.699,-0.597 -0.699,-0.602 -0.699,-0.5 -0.704,-0.5 -0.699,-0.5 -0.699,-0.398 m 86.301,169.597 0,-2.3 -0.102,-2.399 0,-2.398 -0.097,-2.301 -0.102,-2.402 -0.102,-2.399 -0.199,-2.301 -0.097,-2.398 -0.204,-2.402 -0.199,-2.399 -0.199,-2.301 -0.301,-2.398 -0.301,-2.402 -0.199,-2.399 -0.398,-2.301 -0.301,-2.398 -0.301,-2.301 -0.398,-2.398 -0.403,-2.301 -0.398,-2.402 -0.5,-2.297 -0.398,-2.403 -0.5,-2.3 -0.5,-2.297 -0.5,-2.301 -0.602,-2.301 -0.5,-2.301 -0.602,-2.199 -0.597,-2.301 -0.602,-2.3 -0.699,-2.2 -0.602,-2.199 -0.699,-2.199 -0.699,-2.199 -0.699,-2.203 -0.699,-2.2 -0.801,-2.097 -0.699,-2.203 -0.801,-2.098 -0.801,-2.102 -0.898,-2.097 -0.801,-2.102 -0.801,-2 -0.898,-2 -0.903,-2 -0.898,-2 -0.903,-2 -1,-2 -0.898,-1.898 -1,-1.903 -1,-1.898 -1,-1.801 -1,-1.801 -1,-1.898 -1.102,-1.699 -1,-1.801 -1.097,-1.699 -1.102,-1.703 -1.097,-1.7 -1.102,-1.699 -1.102,-1.601 -1.097,-1.598 -1.199,-1.602 -1.102,-1.5 -1.199,-1.5 -1.199,-1.5 -1.204,-1.5 -1.199,-1.398 -1.199,-1.402 -1.199,-1.399 -1.199,-1.301 -1.301,-1.3 -1.199,-1.297 -1.301,-1.203 -1.301,-1.2 -1.199,-1.199 -1.301,-1.101 -1.301,-1.098 -1.301,-1.102 -1.296,-1 -1.301,-1 -1.301,-1 -1.398,-0.898 -1.301,-0.902 -1.301,-0.899 -1.398,-0.801 -1.301,-0.8 -1.301,-0.797 -1.398,-0.703 -1.301,-0.7 -1.403,-0.699 -1.398,-0.601 -1.301,-0.598 -1.398,-0.5 -1.403,-0.5 -1.296,-0.5 -1.403,-0.402 -1.398,-0.399 -1.301,-0.398 m -123.301,163.199 1.403,0.301 1.398,0.398 1.5,0.301 1.398,0.301 1.5,0.398 1.602,0.301 1.5,0.301 1.602,0.297 1.597,0.3 1.699,0.301 1.704,0.301 1.699,0.301 1.699,0.297 1.801,0.3 1.699,0.2 1.801,0.3 1.898,0.301 1.801,0.199 1.898,0.301 1.903,0.199 1.898,0.301 2,0.199 1.903,0.301 2,0.199 2,0.2 2.097,0.203 2,0.199 2.102,0.199 2.097,0.199 2.102,0.2 2.102,0.203 2.097,0.199 2.199,0.199 2.102,0.199 2.199,0.102 2.199,0.199 2.301,0.102 2.199,0.199 2.204,0.098 2.296,0.203 2.301,0.097 2.199,0.102 2.301,0.098 2.301,0.203 2.301,0.097 2.398,0.102 2.301,0 2.301,0.098 2.398,0.101 2.301,0.102 2.398,0 2.301,0.097 2.403,0.102 4.796,0 2.301,0.098 21.5,0 2.403,-0.098 4.699,0 2.398,-0.102 2.403,-0.097 2.296,0 2.403,-0.102 2.301,-0.101 2.398,-0.098 2.301,0 2.301,-0.102 2.296,-0.097 2.301,-0.203 2.301,-0.098 2.301,-0.102 2.301,-0.097 2.199,-0.203 2.301,-0.098 2.199,-0.199 2.199,-0.102 2.199,-0.199 2.199,-0.102 2.204,-0.199 2.097,-0.199 2.199,-0.199 2.102,-0.203 2.102,-0.2 2.097,-0.199 2,-0.199 2.102,-0.199 2,-0.203 2,-0.2 2,-0.199 2,-0.301 m -203.602,-52.898 1.403,0.301 1.296,0.297 1.403,0.3 1.398,0.301 1.403,0.301 1.5,0.301 1.5,0.297 1.5,0.3 1.5,0.301 1.597,0.301 1.602,0.301 1.597,0.297 1.602,0.203 1.699,0.297 1.699,0.3 1.704,0.2 1.796,0.3 1.704,0.2 1.796,0.3 1.801,0.2 1.801,0.3 1.898,0.2 1.903,0.203 1.801,0.199 2,0.199 1.898,0.199 1.898,0.2 2,0.203 2,0.199 2,0.199 2,0.199 2,0.2 2.102,0.101 2.102,0.199 2,0.2 2.097,0.101 2.102,0.199 2.199,0.102 2.102,0.098 2.097,0.203 2.199,0.097 2.204,0.102 2.097,0.098 2.199,0.101 2.204,0.102 2.199,0.097 2.199,0.102 2.301,0.098 2.199,0.101 2.199,0 2.301,0.102 2.199,0 2.301,0.097 2.199,0 2.301,0.102 4.5,0 2.301,0.098 11.301,0 2.296,-0.098 4.5,0 2.301,-0.102 2.301,0 2.199,-0.097 2.301,0 2.199,-0.102 2.199,0 2.301,-0.101 2.199,-0.098 2.204,-0.102 2.199,-0.097 2.199,-0.102 2.199,-0.101 2.199,-0.098 2.102,-0.102 2.199,-0.097 2.102,-0.203 2.199,-0.098 2.102,-0.102 2.097,-0.199 2.102,-0.101 2.097,-0.2 2,-0.199 2.102,-0.101 2,-0.2 2.102,-0.199 2,-0.199 1.898,-0.199 2,-0.203 2,-0.2 1.898,-0.199 1.903,-0.199 1.898,-0.199 1.903,-0.203 m -181.801,-49.598 1.097,0.301 1.102,0.297 1.199,0.3 1.199,0.2 1.204,0.3 1.199,0.2 1.301,0.3 1.296,0.2 1.301,0.3 1.301,0.2 1.398,0.3 1.403,0.2 1.398,0.203 1.403,0.297 1.398,0.203 1.5,0.199 1.5,0.199 1.5,0.199 1.5,0.2 1.5,0.203 1.602,0.199 1.5,0.199 1.597,0.199 1.602,0.2 1.699,0.203 1.602,0.199 1.699,0.098 1.597,0.203 1.704,0.199 1.699,0.098 1.699,0.203 1.801,0.097 1.699,0.2 1.801,0.101 1.699,0.102 1.801,0.199 1.801,0.098 1.796,0.101 1.801,0.102 1.903,0.097 1.796,0.2 1.801,0.101 1.903,0 1.898,0.102 1.801,0.097 1.898,0.102 1.903,0.098 1.898,0 1.898,0.101 1.903,0.102 1.898,0 1.903,0.097 3.796,0 2,0.102 7.704,0 1.898,0.098 1.898,0 2,-0.098 7.704,0 1.898,-0.102 3.801,0 1.898,-0.097 2,0 1.903,-0.102 1.898,-0.101 1.801,0 1.898,-0.098 1.903,-0.102 1.898,-0.097 1.801,-0.102 1.898,0 1.801,-0.101 1.898,-0.2 1.801,-0.097 1.801,-0.102 1.801,-0.101 1.801,-0.098 1.796,-0.199 1.801,-0.102 1.699,-0.101 1.801,-0.2 1.699,-0.097 1.704,-0.203 1.699,-0.098 1.699,-0.199 1.699,-0.203 1.602,-0.098 1.699,-0.199 1.602,-0.203 1.597,-0.2 1.602,-0.199 M 79.414,77.57 l 0.801,0.2 0.898,0.203 0.801,0.199 0.898,0.199 0.903,0.199 0.898,0.2 0.903,0.203 0.898,0.199 1,0.098 0.898,0.203 1,0.199 1,0.199 1,0.102 1.102,0.199 1,0.199 1.102,0.102 1.097,0.199 1,0.098 1.102,0.203 1.199,0.097 1.102,0.2 1.097,0.101 1.199,0.199 1.204,0.102 1.097,0.098 1.199,0.101 1.204,0.199 1.296,0.102 1.204,0.098 1.199,0.101 1.301,0.102 1.199,0.097 1.301,0.2 1.296,0.101 1.301,0.102 1.199,0 1.301,0.097 1.403,0.102 1.296,0.098 1.301,0.101 1.301,0.102 1.398,0 1.301,0.097 1.403,0.102 1.296,0 1.403,0.098 1.398,0 1.301,0.101 1.398,0 1.403,0.102 1.398,0 1.403,0.097 4.199,0 1.398,0.102 12.602,0 1.398,-0.102 4.199,0 1.301,-0.097 1.403,0 1.398,-0.102 1.398,0 1.403,-0.101 1.301,0 1.398,-0.098 1.398,0 1.301,-0.102 1.403,-0.097 1.296,0 1.301,-0.102 1.403,-0.101 1.296,-0.098 1.301,-0.102 1.301,-0.097 1.301,0 1.301,-0.102 1.199,-0.101 1.301,-0.2 1.296,-0.097 1.204,-0.102 1.296,-0.101 1.204,-0.098 1.199,-0.102 1.199,-0.199 1.199,-0.101 1.199,-0.098 1.102,-0.102 1.199,-0.199 m -88.801,-29 0.403,0.102 0.398,0.097 0.5,0.102 0.403,0.098 0.5,0.101 0.5,0.102 0.5,0.097 0.5,0.102 0.5,0.098 0.5,0.101 0.5,0.102 0.5,0.097 0.5,0.102 0.597,0.098 0.5,0 0.602,0.101 0.597,0.102 0.5,0.097 0.602,0.102 0.602,0 0.597,0.098 0.602,0.101 0.597,0.102 0.602,0 0.602,0.097 0.699,0.102 0.597,0 0.602,0.098 0.699,0.101 0.602,0 0.699,0.102 0.699,0 0.602,0.097 0.699,0.102 0.699,0 0.602,0.098 1.398,0 0.699,0.101 0.704,0 0.699,0.102 1.398,0 0.699,0.097 1.5,0 0.704,0.102 2.199,0 0.699,0.098 4.398,0 0.704,0.101 3.699,0 0.699,-0.101 4.5,0 0.699,-0.098 2.199,0 0.704,-0.102 1.398,0 0.699,-0.097 1.403,0 0.699,-0.102 0.699,0 0.699,-0.101 1.403,0 0.699,-0.098 0.597,0 0.704,-0.102 0.699,-0.097 0.597,0 0.704,-0.102 0.699,0 0.597,-0.101 0.602,-0.098 0.699,0 0.602,-0.102 0.597,-0.097 0.602,0 0.602,-0.102" /></g><g
       transform="matrix(1,0,0,-1,0,219.007)"
       id="g110"><path
         inkscape:connector-curvature="0"
         id="path112"
         style="fill:none;stroke:#000000;stroke-width:1.5;stroke-linecap:butt;stroke-linejoin:miter;stroke-miterlimit:10;stroke-opacity:1;stroke-dasharray:none"
         d="m 15.613,201.973 -11.597,4.699 12.398,1.699 m 135.5,-19.699 -147.898,18" /></g><g
       transform="matrix(1,0,0,-1,0,219.007)"
       id="g114"><path
         inkscape:connector-curvature="0"
         id="path116"
         style="fill:none;stroke:#000000;stroke-width:1.5;stroke-linecap:butt;stroke-linejoin:miter;stroke-miterlimit:10;stroke-opacity:1;stroke-dasharray:none"
         d="m 15.613,201.973 -11.597,4.699 12.398,1.699" /></g><g
       transform="matrix(1,0,0,-1,0,219.007)"
       id="g118"><path
         inkscape:connector-curvature="0"
         id="path120"
         style="fill:none;stroke:#000000;stroke-width:1.5;stroke-linecap:butt;stroke-linejoin:miter;stroke-miterlimit:10;stroke-opacity:1;stroke-dasharray:none"
         d="m 242.914,214.57 12.5,-0.199 -11,-6 m -92.5,-19.699 103.5,25.699" /></g><g
       transform="matrix(1,0,0,-1,0,219.007)"
       id="g122"><path
         inkscape:connector-curvature="0"
         id="path124"
         style="fill:none;stroke:#000000;stroke-width:1.5;stroke-linecap:butt;stroke-linejoin:miter;stroke-miterlimit:10;stroke-opacity:1;stroke-dasharray:none"
         d="m 242.914,214.57 12.5,-0.199 -11,-6" /></g><g
       transform="matrix(1,0,0,-1,0,219.007)"
       id="g126"><path
         inkscape:connector-curvature="0"
         id="path128"
         style="fill:none;stroke:#000000;stroke-width:1.5;stroke-linecap:butt;stroke-linejoin:miter;stroke-miterlimit:10;stroke-opacity:1;stroke-dasharray:none"
         d="m 155.113,22.973 -3.199,-12.102 -3.199,12.102 m 3.199,165.699 0,-177.801" /></g><g
       transform="matrix(1,0,0,-1,0,219.007)"
       id="g130"><path
         inkscape:connector-curvature="0"
         id="path132"
         style="fill:none;stroke:#000000;stroke-width:1.5;stroke-linecap:butt;stroke-linejoin:miter;stroke-miterlimit:10;stroke-opacity:1;stroke-dasharray:none"
         d="m 155.113,22.973 -3.199,-12.102 -3.199,12.102" /></g><path
       inkscape:connector-curvature="0"
       id="path134"
       style="fill:#000000;fill-opacity:1;fill-rule:nonzero;stroke:none"
       d="m 190.664,97.237 c 0,1.739 -1.41,3.149 -3.148,3.149 -1.743,0 -3.153,-1.41 -3.153,-3.149 0,-1.742 1.41,-3.152 3.153,-3.152 1.738,0 3.148,1.41 3.148,3.152" /><g
       transform="matrix(1,0,0,-1,0,219.007)"
       id="g136"><path
         inkscape:connector-curvature="0"
         id="path138"
         style="fill:none;stroke:#000000;stroke-width:0.75;stroke-linecap:butt;stroke-linejoin:miter;stroke-miterlimit:10;stroke-opacity:1;stroke-dasharray:2, 3;stroke-dashoffset:0"
         d="m 187.516,121.77 0,87.101 -35.602,-20.199 35.602,-66.902" /></g><g
       transform="matrix(1,0,0,-1,0,219.007)"
       id="g140"><path
         inkscape:connector-curvature="0"
         id="path142"
         style="fill:none;stroke:#000000;stroke-width:1.5;stroke-linecap:butt;stroke-linejoin:miter;stroke-miterlimit:10;stroke-opacity:1;stroke-dasharray:none"
         d="m 185.016,92.473 -5.301,-11 -0.801,12.199 m 8.602,28.098 -7.801,-40.297" /></g><g
       transform="matrix(1,0,0,-1,0,219.007)"
       id="g144"><path
         inkscape:connector-curvature="0"
         id="path146"
         style="fill:none;stroke:#000000;stroke-width:1.5;stroke-linecap:butt;stroke-linejoin:miter;stroke-miterlimit:10;stroke-opacity:1;stroke-dasharray:none"
         d="m 185.016,92.473 -5.301,-11 -0.801,12.199" /></g><g
       transform="matrix(1,0,0,-1,0,219.007)"
       id="g148"><path
         inkscape:connector-curvature="0"
         id="path150"
         style="fill:none;stroke:#000000;stroke-width:1.5;stroke-linecap:butt;stroke-linejoin:miter;stroke-miterlimit:10;stroke-opacity:1;stroke-dasharray:none"
         d="m 218.715,123.371 11.898,-3.898 -12.301,-2.602 m -30.796,4.899 43.097,-2.297" /></g><g
       transform="matrix(1,0,0,-1,0,219.007)"
       id="g152"><path
         inkscape:connector-curvature="0"
         id="path154"
         style="fill:none;stroke:#000000;stroke-width:1.5;stroke-linecap:butt;stroke-linejoin:miter;stroke-miterlimit:10;stroke-opacity:1;stroke-dasharray:none"
         d="m 218.715,123.371 11.898,-3.898 -12.301,-2.602" /></g><g
       transform="matrix(1,0,0,-1,0,219.007)"
       id="g156"><path
         inkscape:connector-curvature="0"
         id="path158"
         style="fill:none;stroke:#000000;stroke-width:1.5;stroke-linecap:butt;stroke-linejoin:miter;stroke-miterlimit:10;stroke-opacity:1;stroke-dasharray:none"
         d="m 199.715,103.871 2,-8.801 -6.102,6.602 m -8.097,20.098 14.199,-26.7" /></g><g
       transform="matrix(1,0,0,-1,0,219.007)"
       id="g160"><path
         inkscape:connector-curvature="0"
         id="path162"
         style="fill:none;stroke:#000000;stroke-width:1.5;stroke-linecap:butt;stroke-linejoin:miter;stroke-miterlimit:10;stroke-opacity:1;stroke-dasharray:none"
         d="m 199.715,103.871 2,-8.801 -6.102,6.602" /></g><path
       inkscape:connector-curvature="0"
       id="path164"
       style="fill:#000000;fill-opacity:1;fill-rule:nonzero;stroke:none"
       d="m 102.199,128.624 c 0,1.738 -1.414,3.149 -3.152,3.149 -1.738,0 -3.149,-1.411 -3.149,-3.149 0,-1.738 1.411,-3.152 3.149,-3.152 1.738,0 3.152,1.414 3.152,3.152" /><g
       transform="matrix(1,0,0,-1,0,219.007)"
       id="g166"><path
         inkscape:connector-curvature="0"
         id="path168"
         style="fill:none;stroke:#000000;stroke-width:0.75;stroke-linecap:butt;stroke-linejoin:miter;stroke-miterlimit:10;stroke-opacity:1;stroke-dasharray:3, 3, 1, 3;stroke-dashoffset:0"
         d="m 96.523,89.879 91.801,32.598" /></g><g
       transform="matrix(1,0,0,-1,0,219.007)"
       id="g170"><path
         inkscape:connector-curvature="0"
         id="path172"
         style="fill:none;stroke:#000000;stroke-width:0.75;stroke-linecap:butt;stroke-linejoin:miter;stroke-miterlimit:10;stroke-opacity:1;stroke-dasharray:none"
         d="m 60.312,100.871 0.204,-0.5 0.296,-0.601 0.204,-0.598 0.199,-0.602 0.301,-0.5 0.199,-0.597 0.199,-0.602 0.301,-0.5 0.199,-0.601 0.301,-0.598 0.199,-0.5 0.301,-0.602 0.199,-0.597 0.301,-0.5 0.199,-0.602 0.199,-0.5 0.301,-0.601 0.301,-0.598 0.199,-0.5 0.301,-0.602 0.199,-0.5 0.301,-0.597 0.199,-0.5 0.301,-0.602 0.199,-0.5 0.301,-0.601 0.301,-0.5 0.199,-0.598 0.301,-0.5 0.199,-0.5 0.301,-0.602 0.296,-0.5 0.204,-0.597 0.296,-0.5 0.301,-0.5 0.301,-0.602 0.199,-0.5 0.301,-0.5 0.301,-0.601 0.199,-0.5 0.301,-0.5 0.301,-0.5 0.296,-0.598 0.204,-0.5 0.296,-0.5 0.301,-0.5 0.301,-0.602 0.301,-0.5 0.301,-0.5 0.199,-0.5 0.301,-0.5 0.296,-0.5 0.301,-0.5 0.301,-0.597 0.301,-0.5 0.301,-0.5 0.296,-0.5 0.204,-0.5 0.296,-0.5 0.301,-0.5 0.301,-0.5 0.301,-0.5 0.301,-0.5 0.296,-0.5 0.301,-0.5 0.301,-0.5 0.301,-0.403 0.301,-0.5 0.296,-0.5 0.301,-0.5 0.301,-0.5 0.301,-0.5 0.301,-0.5 0.296,-0.398 0.301,-0.5 0.301,-0.5 0.301,-0.5 0.398,-0.402 0.301,-0.5 0.301,-0.5 0.301,-0.5 0.296,-0.399 0.301,-0.5 0.301,-0.5 0.301,-0.398 0.398,-0.5 0.301,-0.403 0.301,-0.5 0.301,-0.5 0.296,-0.398 0.403,-0.5 m -0.403,0.5 0.301,0 0.403,0.098 0.296,0 0.301,0.101 0.602,0 0.301,0.102 0.597,0 0.403,0.097 0.296,0 0.301,0.102 0.602,0 0.301,0.098 0.398,0 0.301,0.101 0.597,0 0.403,0.102 0.597,0 0.301,0.097 0.699,0 0.301,0.102 0.699,0 0.301,0.098 0.301,0 0.398,0.101 0.602,0 0.398,0.102 0.602,0 0.398,0.097 0.602,0 0.398,0.102 1,0 0.301,0.098 0.699,0 0.301,0.101 0.699,0 0.403,0.102 0.699,0 0.301,0.097 1.097,0 0.301,0.102 0.699,0 0.301,0.098 1.102,0 0.301,0.101 0.796,0 0.301,0.102 1.102,0 0.301,0.097 1.097,0 0.403,0.102 1,0 0.398,0.098 1.102,0 0.296,0.101 1.5,0 0.301,0.102 1.102,0 m -13.903,47.797 0.204,-0.598 0.097,-0.5 0.102,-0.602 0.097,-0.597 0.204,-0.602 0.097,-0.601 0.102,-0.598 0.199,-0.5 0.102,-0.602 0.097,-0.597 0.102,-0.602 0.199,-0.5 0.102,-0.601 0.097,-0.598 0.199,-0.602 0.102,-0.5 0.102,-0.597 0.199,-0.602 0.097,-0.5 0.204,-0.601 0.097,-0.598 0.102,-0.5 0.199,-0.602 0.102,-0.5 0.199,-0.597 0.097,-0.602 0.102,-0.5 0.199,-0.601 0.102,-0.5 0.199,-0.598 0.102,-0.5 0.097,-0.602 0.199,-0.5 0.102,-0.597 0.199,-0.5 0.102,-0.602 0.199,-0.5 0.102,-0.601 0.199,-0.5 0.097,-0.5 0.204,-0.598 0.097,-0.5 0.199,-0.602 0.102,-0.5 0.199,-0.5 0.102,-0.597 0.199,-0.5 0.102,-0.5 0.199,-0.5 0.097,-0.602 0.204,-0.5 0.097,-0.5 0.199,-0.5 0.204,-0.601 0.097,-0.5 0.199,-0.5 0.102,-0.5 0.199,-0.5 0.102,-0.598 0.199,-0.5 0.199,-0.5 0.102,-0.5 0.199,-0.5 0.102,-0.5 0.199,-0.5 0.199,-0.5 0.102,-0.5 0.199,-0.5 0.097,-0.5 0.204,-0.5 0.199,-0.5 0.097,-0.5 0.204,-0.5 0.199,-0.5 0.097,-0.5 0.204,-0.5 0.199,-0.5 0.097,-0.5 0.204,-0.5 0.199,-0.402 0.097,-0.5 0.204,-0.5 0.199,-0.5 0.097,-0.5 0.204,-0.399 0.199,-0.5 0.199,-0.5 0.102,-0.398 0.199,-0.5 0.199,-0.5 0.102,-0.5 m -55.704,44.398 0.403,0.102 0.398,0.097 0.5,0 0.403,0.102 0.398,0 0.5,0.098 0.398,0 0.403,0.101 0.5,0 0.398,0.102 0.403,0 0.5,0.097 0.398,0 0.398,0.102 0.5,0 0.403,0.098 0.5,0 0.398,0.101 0.403,0.102 0.5,0 0.398,0.097 0.5,0 0.398,0.102 0.903,0 0.5,0.098 0.398,0 0.5,0.101 0.403,0 0.5,0.102 0.5,0 0.398,0.097 0.5,0 0.398,0.102 0.5,0 0.403,0.098 0.5,0 0.5,0.101 0.398,0 0.5,0.102 0.903,0 0.5,0.097 0.5,0 0.398,0.102 0.5,0 0.5,0.098 0.898,0 0.5,0.101 0.5,0 0.403,0.102 1,0 0.5,0.097 0.398,0 0.5,0.102 1,0 0.5,0.098 0.403,0 0.5,0.101 1,0 0.5,0.102 0.5,0 0.398,0.097 1,0 0.5,0.102 1,0 0.5,0.098 1,0 0.5,0.101 0.898,0 0.5,0.102 1,0 0.5,0.097 1,0 0.5,0.102 1,0 0.5,0.098 1,0 0.5,0.101 m 9.403,16.699 0.097,-0.5 0.102,-0.398 0.102,-0.5 0.097,-0.5 0.102,-0.402 0.097,-0.5 0.204,-0.5 0.097,-0.399 0.102,-0.5 0.097,-0.398 0.102,-0.5 0.102,-0.5 0.097,-0.403 0.102,-0.5 0.097,-0.398 0.102,-0.5 0.102,-0.5 0.097,-0.402 0.102,-0.5 0.097,-0.399 0.204,-0.5 0.097,-0.398 0.102,-0.5 0.097,-0.403 0.102,-0.5 0.102,-0.398 0.097,-0.402 0.102,-0.5 0.097,-0.399 0.204,-0.5 0.097,-0.398 0.102,-0.5 0.097,-0.403 0.102,-0.398 0.102,-0.5 0.199,-0.402 0.097,-0.399 0.102,-0.5 0.102,-0.398 0.097,-0.403 0.102,-0.5 0.199,-0.398 0.102,-0.402 0.097,-0.5 0.102,-0.399 0.097,-0.398 0.204,-0.403 0.097,-0.5 0.102,-0.398 0.097,-0.402 0.204,-0.399 0.097,-0.5 0.102,-0.398 0.097,-0.403 0.204,-0.398 0.097,-0.402 0.102,-0.399 0.097,-0.5 0.204,-0.398 0.097,-0.403 0.102,-0.398 0.097,-0.402 0.204,-0.399 0.097,-0.398 0.102,-0.403 0.199,-0.398 0.102,-0.402 0.097,-0.399 0.102,-0.398 0.199,-0.403 0.102,-0.398 0.097,-0.402 0.199,-0.399 0.102,-0.398 0.102,-0.403 0.199,-0.398 0.097,-0.402 0.102,-0.399 0.199,-0.398 0.102,-0.301 0.097,-0.402 0.204,-0.399 0.097,-0.398 0.199,-0.403 0.102,-0.398 0.102,-0.301 0.199,-0.398 0.097,-0.403 0.102,-0.398 0.199,-0.301 0.102,-0.398 m -44.602,35.5 0.301,0 0.398,0.097 0.301,0 0.403,0.102 0.296,0 0.403,0.098 0.699,0 0.301,0.101 0.301,0 0.398,0.102 0.301,0 0.398,0.097 0.699,0 0.301,0.102 0.403,0 0.398,0.098 0.699,0 0.301,0.101 0.398,0 0.301,0.102 0.801,0 0.301,0.097 0.398,0 0.301,0.102 0.801,0 0.301,0.098 0.796,0 0.301,0.101 0.403,0 0.398,0.102 0.699,0 0.403,0.097 0.699,0 0.398,0.102 0.699,0 0.403,0.098 0.801,0 0.296,0.101 0.403,0 0.398,0.102 1.102,0 0.398,0.097 0.801,0 0.398,0.102 0.704,0 0.398,0.098 0.801,0 0.398,0.101 0.801,0 0.301,0.102 1.199,0 0.398,0.097 0.801,0 0.403,0.102 1.199,0 0.398,0.098 0.699,0 0.403,0.101 1.199,0 0.398,0.102 1.204,0 0.398,0.097 1.199,0 m -52.301,-20.699 18.301,17.602 m 37.301,-61.5 7.199,26.398 m -20.801,21.399 9.903,16.8" /></g><g
       transform="matrix(1,0,0,-1,0,219.007)"
       id="g174"><path
         inkscape:connector-curvature="0"
         id="path176"
         style="fill:none;stroke:#000000;stroke-width:0.75;stroke-linecap:butt;stroke-linejoin:miter;stroke-miterlimit:10;stroke-opacity:1;stroke-dasharray:4, 2;stroke-dashoffset:0"
         d="m 98.613,81.07 0.301,0 0.199,0.102 0.5,0 0.301,0.098 0.5,0 0.199,0.101 0.801,0 0.199,0.102 0.602,0 0.199,0.097 0.5,0 0.301,0.102 0.801,0 0.199,0.098 0.5,0 0.301,0.101 0.796,0 0.301,0.102 0.5,0 0.199,0.097 0.801,0 0.301,0.102 0.801,0 0.301,0.098 0.796,0 0.301,0.101 0.801,0 0.301,0.102 0.801,0 0.296,0.097 0.801,0 0.301,0.102 0.801,0 0.301,0.098 1.097,0 0.301,0.101 1.102,0 0.296,0.102 0.903,0 0.301,0.097 1.097,0 0.301,0.102 1.398,0 0.301,0.098 1.199,0 0.301,0.101 0.301,0 M 85.312,54.172 98.613,81.07 m -20,37.403 0.199,-0.5 0.204,-0.403 0.199,-0.5 0.199,-0.398 0.102,-0.5 0.199,-0.5 0.199,-0.402 0.199,-0.5 0.199,-0.399 0.204,-0.5 0.199,-0.398 0.199,-0.5 0.199,-0.403 0.199,-0.5 0.204,-0.398 0.199,-0.5 0.199,-0.402 0.199,-0.5 0.199,-0.399 0.204,-0.398 0.199,-0.5 0.199,-0.403 0.199,-0.5 0.199,-0.398 0.204,-0.5 0.199,-0.402 0.199,-0.399 0.301,-0.5 0.199,-0.398 0.199,-0.403 0.199,-0.5 0.204,-0.398 0.199,-0.402 0.199,-0.5 0.199,-0.399 0.301,-0.398 0.199,-0.403 0.199,-0.5 0.204,-0.398 0.199,-0.402 0.199,-0.399 0.301,-0.5 0.199,-0.398 0.199,-0.403 0.199,-0.398 0.301,-0.402 0.199,-0.399 0.204,-0.5 0.199,-0.398 0.301,-0.403 0.199,-0.398 0.199,-0.402 0.199,-0.399 0.301,-0.398 0.199,-0.403 0.199,-0.398 0.301,-0.402 0.199,-0.399 0.204,-0.398 0.296,-0.403 0.204,-0.398 0.199,-0.402 0.301,-0.399 0.199,-0.398 0.301,-0.403 0.199,-0.398 0.199,-0.402 0.301,-0.399 0.199,-0.398 0.301,-0.403 0.199,-0.398 0.199,-0.402 0.301,-0.297 0.199,-0.403 0.301,-0.398 0.199,-0.402 0.301,-0.399 0.199,-0.398 0.301,-0.301 0.199,-0.402 0.301,-0.399 0.199,-0.398 0.301,-0.301 0.199,-0.402 0.301,-0.399 0.199,-0.301 0.301,-0.398 0.199,-0.402 0.301,-0.297 0.199,-0.403 0.301,-0.398" /></g><text
       xml:space="preserve"
       style="font-size:6.4000001px;font-style:normal;font-variant:normal;font-weight:normal;font-stretch:normal;line-height:125%;letter-spacing:0px;word-spacing:0px;fill:#000000;fill-opacity:1;stroke:none;font-family:Serif;-inkscape-font-specification:Serif"
       x="6.5619206"
       y="-187.01474"
       id="text3273"
       sodipodi:linespacing="125%"
       transform="scale(1,-1)"><tspan
         sodipodi:role="line"
         id="tspan3275"
         x="6.5619206"
         y="-187.01474"
         style="font-size:16px">a tesseroid</tspan></text>
<path
       style="fill:none;stroke:#000000;stroke-width:1.43999994;stroke-linecap:butt;stroke-linejoin:miter;stroke-miterlimit:4;stroke-opacity:1;stroke-dasharray:none;marker-end:url(#Arrow1Mend)"
       d="M 45.277256,184.38997 74.149709,154.86133"
       id="path3277"
       inkscape:connector-curvature="0" /></g></svg>